<svg width="20" height="20" viewBox="0 0 20 20" fill="none" xmlns="http://www.w3.org/2000/svg">
<path d="M7.06021 9.59965L5.84172 10.8235L9.51422 14.4807L13.1705 10.8082L11.9458 9.58973L10.3705 11.1711L10.3562 4.66186L8.62891 4.66567L8.64328 11.1749L7.06021 9.59965Z" fill="#F34E3F"/>
<path fill-rule="evenodd" clip-rule="evenodd" d="M2.81843 16.2531C6.53679 19.9551 12.5511 19.9418 16.2531 16.2235C19.9551 12.5051 19.9418 6.49075 16.2235 2.78877C12.5051 -0.91321 6.49075 -0.899932 2.78877 2.81843C-0.91321 6.53679 -0.899932 12.5511 2.81843 16.2531ZM4.03691 15.0293C5.49781 16.4837 7.47665 17.2983 9.53811 17.2937C11.5996 17.2892 13.5748 16.4659 15.0293 15.005C16.4837 13.5441 17.2983 11.5653 17.2937 9.50379C17.2892 7.44233 16.4659 5.4671 15.005 4.01265C13.5441 2.55819 11.5653 1.74364 9.50379 1.74819C7.44233 1.75274 5.4671 2.57602 4.01265 4.03691C2.55819 5.49781 1.74364 7.47665 1.74819 9.53811C1.75274 11.5996 2.57602 13.5748 4.03691 15.0293Z" fill="#F34E3F"/>
</svg>
