<svg width="20" height="20" viewBox="0 0 20 20" fill="none" xmlns="http://www.w3.org/2000/svg">
<path d="M9.16667 15H10.8333V13.3333H9.16667V15ZM10 5C8.16667 5 6.66667 6.5 6.66667 8.33333H8.33333C8.33333 7.41667 9.08333 6.66667 10 6.66667C10.9167 6.66667 11.6667 7.41667 11.6667 8.33333C11.6667 10 9.16667 9.83333 9.16667 12.5H10.8333C10.8333 10.6667 13.3333 10.4167 13.3333 8.33333C13.3333 6.5 11.8333 5 10 5ZM15.8333 4.16667V15.8333H4.16667V4.16667H15.8333ZM15.8333 2.5H4.16667C3.25 2.5 2.5 3.25 2.5 4.16667V15.8333C2.5 16.75 3.25 17.5 4.16667 17.5H15.8333C16.75 17.5 17.5 16.75 17.5 15.8333V4.16667C17.5 3.25 16.75 2.5 15.8333 2.5Z" fill="#868A95"/>
</svg>
