<svg width="31" height="31" viewBox="0 0 31 31" fill="none" xmlns="http://www.w3.org/2000/svg">
<path d="M24.5604 1.88926H30.2282V9.44632H1.88926V26.4497H15.1141V28.339H0V1.88926H5.66779V0H7.55706V1.88926H22.6712V0H24.5604V1.88926ZM28.339 7.55706V3.77853H24.5604V5.66779H22.6712V3.77853H7.55706V5.66779H5.66779V3.77853H1.88926V7.55706H28.339ZM29.7707 11.3356L26.2578 17.0034H30.2282L20.3096 30.2282H16.413L20.1915 22.6712H16.413L22.1251 11.3356H29.7707ZM26.4497 18.8926H22.863L26.3759 13.2248H23.2911L19.483 20.7819H23.2616L19.7044 27.8962L26.4497 18.8926Z" fill="white"/>
</svg>
