<svg width="20" height="20" viewBox="0 0 20 20" fill="none" xmlns="http://www.w3.org/2000/svg">
<path d="M16.454 3.33325C16.9513 3.33325 17.4282 3.5308 17.7798 3.88243C18.1315 4.23406 18.329 4.71097 18.329 5.20825V14.7958C18.329 15.293 18.1315 15.7699 17.7798 16.1216C17.4282 16.4732 16.9513 16.6708 16.454 16.6708H3.5415C3.29528 16.6708 3.05146 16.6223 2.82397 16.528C2.59649 16.4338 2.38979 16.2957 2.21568 16.1216C2.04157 15.9475 1.90346 15.7408 1.80923 15.5133C1.715 15.2858 1.6665 15.042 1.6665 14.7958V5.20825C1.6665 4.71097 1.86405 4.23406 2.21568 3.88243C2.56731 3.5308 3.04422 3.33325 3.5415 3.33325H16.454ZM16.454 4.58325H3.5415C3.37574 4.58325 3.21677 4.6491 3.09956 4.76631C2.98235 4.88352 2.9165 5.04249 2.9165 5.20825V14.7958C2.9165 15.1408 3.1965 15.4208 3.5415 15.4208L5.83234 15.4199L5.83317 13.1249C5.83318 12.7589 5.97081 12.4063 6.21874 12.1371C6.46666 11.8679 6.80675 11.7017 7.1715 11.6716L7.2915 11.6666H12.704C13.0701 11.6666 13.4228 11.8044 13.6921 12.0525C13.9613 12.3006 14.1274 12.6409 14.1573 13.0058L14.1623 13.1249L14.1615 15.4199H16.454C16.6198 15.4199 16.7787 15.3541 16.8959 15.2369C17.0132 15.1196 17.079 14.9607 17.079 14.7949V5.20825C17.079 5.04249 17.0132 4.88352 16.8959 4.76631C16.7787 4.6491 16.6198 4.58325 16.454 4.58325ZM12.704 12.9166H7.2915C7.24457 12.9167 7.19903 12.9326 7.16228 12.9618C7.12553 12.991 7.09971 13.0317 7.089 13.0774L7.08317 13.1249L7.08234 15.4199H12.9115V13.1249C12.9115 13.0781 12.8957 13.0326 12.8666 12.9959C12.8376 12.9592 12.797 12.9333 12.7515 12.9224L12.704 12.9166ZM9.99984 5.83325C10.6629 5.83325 11.2988 6.09664 11.7676 6.56549C12.2364 7.03433 12.4998 7.67021 12.4998 8.33325C12.4998 8.99629 12.2364 9.63218 11.7676 10.101C11.2988 10.5699 10.6629 10.8333 9.99984 10.8333C9.3368 10.8333 8.70091 10.5699 8.23207 10.101C7.76323 9.63218 7.49984 8.99629 7.49984 8.33325C7.49984 7.67021 7.76323 7.03433 8.23207 6.56549C8.70091 6.09664 9.3368 5.83325 9.99984 5.83325ZM9.99984 7.08325C9.66832 7.08325 9.35037 7.21495 9.11595 7.44937C8.88153 7.68379 8.74984 8.00173 8.74984 8.33325C8.74984 8.66477 8.88153 8.98272 9.11595 9.21714C9.35037 9.45156 9.66832 9.58325 9.99984 9.58325C10.3314 9.58325 10.6493 9.45156 10.8837 9.21714C11.1181 8.98272 11.2498 8.66477 11.2498 8.33325C11.2498 8.00173 11.1181 7.68379 10.8837 7.44937C10.6493 7.21495 10.3314 7.08325 9.99984 7.08325Z" fill="#868A95"/>
</svg>
