<svg width="33" height="33" viewBox="0 0 33 33" fill="none" xmlns="http://www.w3.org/2000/svg">
<path d="M8.85254 7.41699H13.6064C13.8818 7.41713 14.1406 7.65787 14.1406 8C14.1406 8.3128 13.9216 8.54348 13.6748 8.57812L13.5967 8.58301H8.85254C8.13369 8.58301 7.57025 9.14869 7.49414 9.83789L7.49219 9.84863V9.86035L7.48535 9.97754V22C7.48535 22.7094 7.99587 23.3223 8.69141 23.4072L8.70312 23.4082L8.71582 23.4092L8.82715 23.416L8.83984 23.417H13.1309C13.4063 23.417 13.665 23.6578 13.665 24C13.665 24.3129 13.4461 24.5436 13.1992 24.5781L13.1211 24.583H8.85254C7.65391 24.583 6.63173 23.6551 6.44629 22.4072L6.4209 22.1533L6.41699 21.9883V10C6.41699 8.60819 7.44539 7.50136 8.70312 7.4209L8.85254 7.41602V7.41699ZM17.9893 12.752C18.1964 12.5341 18.5235 12.5342 18.7305 12.752L21.4199 15.5801C21.638 15.8097 21.638 16.1903 21.4199 16.4199L18.7305 19.248C18.5235 19.4658 18.1964 19.4659 17.9893 19.248C17.7713 19.0184 17.7711 18.6377 17.9893 18.4082L19.0557 17.2871L19.7246 16.583H13.6064C13.331 16.583 13.0723 16.3422 13.0723 16C13.0723 15.6578 13.331 15.417 13.6064 15.417H19.7246L19.0557 14.7129L17.9893 13.5918C17.7711 13.3623 17.7713 12.9816 17.9893 12.752Z" fill="#868A95" stroke="#868A95" stroke-width="0.833333"/>
</svg>
