<svg width="20" height="20" viewBox="0 0 20 20" fill="none" xmlns="http://www.w3.org/2000/svg">
<path d="M3.33317 17.5001C2.87484 17.5001 2.48262 17.337 2.1565 17.0109C1.83039 16.6848 1.66706 16.2923 1.6665 15.8334V6.66675C1.6665 6.20841 1.82984 5.81619 2.1565 5.49008C2.48317 5.16397 2.87539 5.00064 3.33317 5.00008H6.6665V3.33341C6.6665 2.87508 6.82984 2.48286 7.1565 2.15675C7.48317 1.83064 7.87539 1.6673 8.33317 1.66675H11.6665C12.1248 1.66675 12.5173 1.83008 12.844 2.15675C13.1707 2.48341 13.3337 2.87564 13.3332 3.33341V5.00008H16.6665C17.1248 5.00008 17.5173 5.16341 17.844 5.49008C18.1707 5.81675 18.3337 6.20897 18.3332 6.66675V15.8334C18.3332 16.2917 18.1701 16.6842 17.844 17.0109C17.5179 17.3376 17.1254 17.5006 16.6665 17.5001H3.33317ZM8.33317 5.00008H11.6665V3.33341H8.33317V5.00008ZM16.6665 12.5001H12.4998V13.3334C12.4998 13.5695 12.4198 13.7676 12.2598 13.9276C12.0998 14.0876 11.9021 14.1673 11.6665 14.1667H8.33317C8.09706 14.1667 7.89928 14.0867 7.73984 13.9267C7.58039 13.7667 7.50039 13.569 7.49984 13.3334V12.5001H3.33317V15.8334H16.6665V12.5001ZM9.1665 12.5001H10.8332V10.8334H9.1665V12.5001ZM3.33317 10.8334H7.49984V10.0001C7.49984 9.76397 7.57984 9.56619 7.73984 9.40675C7.89984 9.2473 8.09761 9.1673 8.33317 9.16675H11.6665C11.9026 9.16675 12.1007 9.24675 12.2607 9.40675C12.4207 9.56675 12.5004 9.76453 12.4998 10.0001V10.8334H16.6665V6.66675H3.33317V10.8334Z" fill="#868A95"/>
</svg>
