<svg width="33" height="33" viewBox="0 0 33 33" fill="none" xmlns="http://www.w3.org/2000/svg">
<path d="M28 0H5C2.23858 0 0 2.23858 0 5V28C0 30.7614 2.23858 33 5 33H28C30.7614 33 33 30.7614 33 28V5C33 2.23858 30.7614 0 28 0Z" fill="#20C0A0"/>
<path d="M15.9497 5.5C19.7962 5.5 23.2643 8.12465 23.2643 11.6395V16.2841C23.2643 16.941 23.4618 17.5826 23.8338 18.129L26.1327 21.5037C26.2923 21.7376 26.3841 22.0095 26.3981 22.2904C26.4121 22.5714 26.348 22.8508 26.2124 23.0988C26.0769 23.3468 25.8751 23.554 25.6286 23.6984C25.3821 23.8428 25.1002 23.9189 24.8129 23.9186H19.607C19.607 24.3889 19.5124 24.8546 19.3286 25.2891C19.1448 25.7237 18.8754 26.1185 18.5358 26.451C18.1962 26.7836 17.793 27.0474 17.3493 27.2274C16.9056 27.4074 16.43 27.5 15.9497 27.5C15.4694 27.5 14.9939 27.4074 14.5501 27.2274C14.1064 27.0474 13.7032 26.7836 13.3636 26.451C13.024 26.1185 12.7546 25.7237 12.5708 25.2891C12.387 24.8546 12.2924 24.3889 12.2924 23.9186H7.08754C6.80043 23.9188 6.51865 23.8428 6.27222 23.6985C6.0258 23.5542 5.82399 23.3471 5.68831 23.0994C5.55263 22.8516 5.48816 22.5724 5.50179 22.2916C5.51542 22.0107 5.60662 21.7388 5.76569 21.5047L8.06457 18.129C8.43658 17.5827 8.6351 16.9407 8.63511 16.2841V11.6395C8.63511 8.12465 12.1022 5.5 15.9497 5.5ZM10.2025 11.6395V16.2841C10.2028 17.2437 9.91301 18.1818 9.3697 18.9804L7.07082 22.3551L7.06769 22.3653L7.06873 22.3725L7.07291 22.3786L7.07918 22.3827L7.0865 22.3837H24.8129L24.8203 22.3827L24.8265 22.3786L24.8307 22.3725L24.8318 22.3663L24.8286 22.3561L22.5308 18.9804C21.9871 18.1819 21.697 17.2438 21.6969 16.2841V11.6395C21.6969 9.22056 19.2068 7.03488 15.9497 7.03488C12.6926 7.03488 10.2025 9.22056 10.2025 11.6395ZM18.0396 23.9186H13.8598C13.8598 24.4614 14.08 24.9819 14.4719 25.3657C14.8639 25.7495 15.3954 25.9651 15.9497 25.9651C16.504 25.9651 17.0356 25.7495 17.4275 25.3657C17.8194 24.9819 18.0396 24.4614 18.0396 23.9186Z" fill="white"/>
</svg>
