<svg width="29" height="36" viewBox="0 0 29 36" fill="none" xmlns="http://www.w3.org/2000/svg">
<path d="M13.4999 25.7142C14.3524 25.7142 15.17 25.3756 15.7728 24.7728C16.3756 24.17 16.7142 23.3524 16.7142 22.4999C16.7142 21.6474 16.3756 20.8299 15.7728 20.2271C15.17 19.6243 14.3524 19.2856 13.4999 19.2856C12.6474 19.2856 11.8299 19.6243 11.2271 20.2271C10.6243 20.8299 10.2856 21.6474 10.2856 22.4999C10.2856 23.3524 10.6243 24.17 11.2271 24.7728C11.8299 25.3756 12.6474 25.7142 13.4999 25.7142Z" fill="#008080"/>
<path fill-rule="evenodd" clip-rule="evenodd" d="M3.21429 0H9C10.705 0 12.3401 0.677294 13.5457 1.88288C14.7513 3.08848 15.4286 4.72361 15.4286 6.42857V9.64286C15.4286 11.4189 16.8686 12.8571 18.6429 12.8571H21.8571C23.5621 12.8571 25.1972 13.5344 26.4028 14.74C27.6084 15.9456 28.2857 17.5808 28.2857 19.2857V32.7857C28.2857 34.56 26.8457 36 25.0714 36H3.21429C2.3618 36 1.54424 35.6614 0.941442 35.0586C0.338647 34.4558 0 33.6382 0 32.7857V3.21429C0 1.43829 1.44 0 3.21429 0ZM13.5 28.2857C14.6314 28.2857 15.6891 27.96 16.5806 27.3977L18.3771 29.1943C18.6209 29.4214 18.9432 29.545 19.2763 29.5392C19.6094 29.5333 19.9272 29.3983 20.1628 29.1628C20.3983 28.9272 20.5333 28.6094 20.5392 28.2763C20.545 27.9432 20.4214 27.6209 20.1943 27.3771L18.3994 25.5806C19.0825 24.4946 19.3853 23.2124 19.2601 21.9356C19.135 20.6588 18.589 19.4598 17.7081 18.5271C16.8271 17.5945 15.6612 16.9811 14.3936 16.7834C13.126 16.5857 11.8286 16.8149 10.7055 17.435C9.58237 18.0551 8.69722 19.031 8.18922 20.209C7.68121 21.3871 7.57917 22.7006 7.89914 23.943C8.21911 25.1854 8.94294 26.2862 9.95681 27.0723C10.9707 27.8584 12.2171 28.2853 13.5 28.2857Z" fill="#008080"/>
<path d="M17.9995 6.42934C18.0025 4.26685 17.2238 2.17613 15.8069 0.54248C18.6752 1.29703 21.2918 2.79973 23.389 4.89696C25.4862 6.99418 26.9889 9.61071 27.7435 12.4791C26.1098 11.0622 24.0191 10.2835 21.8566 10.2865H18.6423C18.4718 10.2865 18.3083 10.2188 18.1877 10.0982C18.0672 9.97763 17.9995 9.81412 17.9995 9.64362V6.42934Z" fill="#008080"/>
</svg>
