<svg width="31" height="36" viewBox="0 0 31 36" fill="none" xmlns="http://www.w3.org/2000/svg">
<path fill-rule="evenodd" clip-rule="evenodd" d="M15.1977 0.00293403C17.2581 -0.0370677 19.3058 0.332312 21.221 1.08947C23.1362 1.84662 24.8806 2.97635 26.352 4.41257C27.8234 5.84879 28.9923 7.56266 29.7904 9.45394C30.5885 11.3452 30.9997 13.3759 31 15.4273V25.7137C31 26.7367 30.5917 27.7178 29.865 28.4412C29.1383 29.1646 28.1527 29.571 27.125 29.571H23.25V34.7142C23.25 35.0552 23.1139 35.3823 22.8717 35.6234C22.6294 35.8645 22.3009 36 21.9583 36H9.04164C8.69906 36 8.37052 35.8645 8.12829 35.6234C7.88605 35.3823 7.74997 35.0552 7.74997 34.7142V28.7918C4.81743 27.1064 2.52003 24.5114 1.20895 21.4035C-0.102123 18.2956 -0.354728 14.8459 0.489754 11.5816C1.33424 8.31727 3.22934 5.41807 5.88536 3.32716C8.54137 1.23625 11.8122 0.0686756 15.1977 0.00293403ZM6.6133 18.5389C5.85755 16.4189 5.86635 14.1032 6.63818 11.9889C7.41001 9.87465 8.89678 8.09359 10.8435 6.95118C12.7902 5.80877 15.0756 5.3762 17.3077 5.72767C19.5397 6.07914 21.5794 7.19274 23.0769 8.87748C23.8364 9.73639 23.6582 11.017 22.8057 11.7834C19.5868 14.6815 14.2858 18.3949 9.08039 19.7681C8.05222 20.0407 6.9698 19.5341 6.6133 18.5389Z" fill="#008080"/>
</svg>
