<svg width="26" height="36" viewBox="0 0 26 36" fill="none" xmlns="http://www.w3.org/2000/svg">
<path d="M6.30005 24.3V22.5H8.10005V24.3H6.30005Z" fill="#008080"/>
<path fill-rule="evenodd" clip-rule="evenodd" d="M9 0C8.28392 0 7.59716 0.284464 7.09081 0.790812C6.58446 1.29716 6.3 1.98392 6.3 2.7H2.7C1.98392 2.7 1.29716 2.98446 0.790811 3.49081C0.284463 3.99716 0 4.68392 0 5.4V33.3C0 34.0161 0.284463 34.7028 0.790811 35.2092C1.29716 35.7155 1.98392 36 2.7 36H22.5C23.2161 36 23.9028 35.7155 24.4092 35.2092C24.9155 34.7028 25.2 34.0161 25.2 33.3V5.4C25.2 4.68392 24.9155 3.99716 24.4092 3.49081C23.9028 2.98446 23.2161 2.7 22.5 2.7H18.9C18.9 1.98392 18.6155 1.29716 18.1092 0.790812C17.6028 0.284464 16.9161 0 16.2 0H9ZM8.1 2.7C8.1 2.46131 8.19482 2.23239 8.3636 2.0636C8.53239 1.89482 8.76131 1.8 9 1.8H16.2C16.4387 1.8 16.6676 1.89482 16.8364 2.0636C17.0052 2.23239 17.1 2.46131 17.1 2.7V4.5C17.1 4.73869 17.0052 4.96761 16.8364 5.1364C16.6676 5.30518 16.4387 5.4 16.2 5.4H9C8.76131 5.4 8.53239 5.30518 8.3636 5.1364C8.19482 4.96761 8.1 4.73869 8.1 4.5V2.7ZM5.4 14.4C5.16131 14.4 4.93239 14.4948 4.7636 14.6636C4.59482 14.8324 4.5 15.0613 4.5 15.3C4.5 15.5387 4.59482 15.7676 4.7636 15.9364C4.93239 16.1052 5.16131 16.2 5.4 16.2H11.7C11.9387 16.2 12.1676 16.1052 12.3364 15.9364C12.5052 15.7676 12.6 15.5387 12.6 15.3C12.6 15.0613 12.5052 14.8324 12.3364 14.6636C12.1676 14.4948 11.9387 14.4 11.7 14.4H5.4ZM4.5 10.8C4.5 10.5613 4.59482 10.3324 4.7636 10.1636C4.93239 9.99482 5.16131 9.9 5.4 9.9H19.35C19.5887 9.9 19.8176 9.99482 19.9864 10.1636C20.1552 10.3324 20.25 10.5613 20.25 10.8C20.25 11.0387 20.1552 11.2676 19.9864 11.4364C19.8176 11.6052 19.5887 11.7 19.35 11.7H5.4C5.16131 11.7 4.93239 11.6052 4.7636 11.4364C4.59482 11.2676 4.5 11.0387 4.5 10.8ZM4.5 21.6C4.5 21.3613 4.59482 21.1324 4.7636 20.9636C4.93239 20.7948 5.16131 20.7 5.4 20.7H9C9.2387 20.7 9.46761 20.7948 9.6364 20.9636C9.80518 21.1324 9.9 21.3613 9.9 21.6V25.2C9.9 25.4387 9.80518 25.6676 9.6364 25.8364C9.46761 26.0052 9.2387 26.1 9 26.1H5.4C5.16131 26.1 4.93239 26.0052 4.7636 25.8364C4.59482 25.6676 4.5 25.4387 4.5 25.2V21.6ZM16.2 25.2C16.9161 25.2 17.6028 24.9155 18.1092 24.4092C18.6155 23.9028 18.9 23.2161 18.9 22.5C18.9 21.7839 18.6155 21.0972 18.1092 20.5908C17.6028 20.0845 16.9161 19.8 16.2 19.8C15.4839 19.8 14.7972 20.0845 14.2908 20.5908C13.7845 21.0972 13.5 21.7839 13.5 22.5C13.5 23.2161 13.7845 23.9028 14.2908 24.4092C14.7972 24.9155 15.4839 25.2 16.2 25.2ZM10.8 29.25C10.8 27.3456 14.3973 26.3862 16.2 26.3862C18.0027 26.3862 21.6 27.3456 21.6 29.25V31.5H10.8V29.25Z" fill="#008080"/>
</svg>
