<svg width="36" height="36" viewBox="0 0 36 36" fill="none" xmlns="http://www.w3.org/2000/svg">
<path fill-rule="evenodd" clip-rule="evenodd" d="M18 0C23.9224 0 28.0736 0.189646 30.6856 0.369769C33.2976 0.549893 35.3752 2.50665 35.6072 5.12519C35.8064 7.37475 36 10.7709 36 15.4732C36 20.1754 35.8064 23.5716 35.6072 25.8212C35.3752 28.4278 33.3176 30.3774 30.7216 30.5742C31.4235 29.7431 31.8649 28.7263 31.9912 27.6494C32.7464 26.7027 33.2 25.5038 33.2 24.2016C33.2 22.8995 32.7464 21.7005 31.9912 20.7547C31.8465 19.5112 31.2814 18.3529 30.388 17.4688C29.4968 16.5828 28.3294 16.0223 27.076 15.8787C26.1216 15.1296 24.9128 14.6797 23.6 14.6797C22.2872 14.6797 21.0784 15.1296 20.1248 15.8787C18.8711 16.0222 17.7034 16.5827 16.812 17.4688C15.9191 18.3529 15.3542 19.5108 15.2096 20.7539C14.4536 21.7013 14 22.8995 14 24.2016C14 25.5038 14.4536 26.7027 15.2096 27.6494C15.3542 28.8925 15.9191 30.0504 16.812 30.9345L16.8208 30.944C11.5224 30.9202 7.7496 30.7448 5.3144 30.5766C2.7024 30.3957 0.6248 28.4397 0.3928 25.8212C0.1936 23.5716 0 20.1754 0 15.4732C0 10.7709 0.1936 7.37475 0.3928 5.12519C0.6248 2.50665 2.7024 0.550686 5.3144 0.369769C7.9264 0.190439 12.0776 0 18 0ZM8.4 6.74472C7.97565 6.74472 7.56869 6.91192 7.26863 7.20954C6.96857 7.50716 6.8 7.91081 6.8 8.33171C6.8 8.75261 6.96857 9.15626 7.26863 9.45388C7.56869 9.7515 7.97565 9.9187 8.4 9.9187H25.2C25.6243 9.9187 26.0313 9.7515 26.3314 9.45388C26.6314 9.15626 26.8 8.75261 26.8 8.33171C26.8 7.91081 26.6314 7.50716 26.3314 7.20954C26.0313 6.91192 25.6243 6.74472 25.2 6.74472H8.4ZM6.8 14.6797C6.8 14.2588 6.96857 13.8551 7.26863 13.5575C7.56869 13.2599 7.97565 13.0927 8.4 13.0927H13.2C13.6243 13.0927 14.0313 13.2599 14.3314 13.5575C14.6314 13.8551 14.8 14.2588 14.8 14.6797C14.8 15.1006 14.6314 15.5042 14.3314 15.8019C14.0313 16.0995 13.6243 16.2667 13.2 16.2667H8.4C7.97565 16.2667 7.56869 16.0995 7.26863 15.8019C6.96857 15.5042 6.8 15.1006 6.8 14.6797ZM16.4 24.2358C16.4 25.2332 16.864 26.1235 17.5896 26.7051C17.5391 27.1761 17.5956 27.6523 17.7548 28.0988C17.914 28.5453 18.1719 28.9508 18.5096 29.2856C19.018 29.7918 19.6844 30.1121 20.4 30.1941C20.4046 31.887 20.4579 33.5794 20.56 35.2693C20.6 35.9359 21.4056 36.2406 21.892 35.778L23.184 34.5496C23.2957 34.4434 23.4445 34.3841 23.5992 34.3841C23.7539 34.3841 23.9027 34.4434 24.0144 34.5496L25.3064 35.778C25.7928 36.2406 26.5984 35.9367 26.6392 35.2693C26.7413 33.5794 26.7946 31.887 26.7992 30.1941C27.5151 30.1123 28.1818 29.792 28.6904 29.2856C29.0281 28.9508 29.286 28.5453 29.4452 28.0988C29.6044 27.6523 29.6609 27.1761 29.6104 26.7051C30.336 26.1235 30.8 25.2332 30.8 24.2358C30.8 23.2383 30.336 22.348 29.6104 21.7664C29.7088 20.8459 29.4024 19.8914 28.6912 19.1859C27.98 18.4805 27.0176 18.1766 26.0896 18.2734C25.7895 17.9053 25.4102 17.6084 24.9794 17.4045C24.5486 17.2006 24.0773 17.0949 23.6 17.0951C22.5944 17.0951 21.6968 17.5553 21.1104 18.275C20.6357 18.2249 20.1556 18.2807 19.7054 18.4385C19.2553 18.5962 18.8464 18.8519 18.5088 19.1867C18.1711 19.5215 17.9132 19.927 17.754 20.3735C17.5948 20.8201 17.5383 21.2962 17.5888 21.7672C17.2176 22.0647 16.9182 22.4408 16.7125 22.8679C16.5068 23.295 16.4 23.7624 16.4 24.2358ZM25.6 24.2016C25.6 24.7278 25.3893 25.2323 25.0142 25.6044C24.6391 25.9764 24.1304 26.1854 23.6 26.1854C23.0696 26.1854 22.5609 25.9764 22.1858 25.6044C21.8107 25.2323 21.6 24.7278 21.6 24.2016C21.6 23.6755 21.8107 23.1709 22.1858 22.7989C22.5609 22.4269 23.0696 22.2179 23.6 22.2179C24.1304 22.2179 24.6391 22.4269 25.0142 22.7989C25.3893 23.1709 25.6 23.6755 25.6 24.2016Z" fill="#008080" fill-opacity="0.33"/>
</svg>
