<svg width="33" height="36" viewBox="0 0 33 36" fill="none" xmlns="http://www.w3.org/2000/svg">
<path d="M20.262 0.624833C19.9804 0.393154 19.656 0.220003 19.3075 0.115401C18.959 0.0107999 18.5933 -0.0231736 18.2317 0.0154471C17.87 0.0540679 17.5196 0.164516 17.2006 0.340398C16.8817 0.51628 16.6005 0.754102 16.3735 1.0401L8.4095 11.084H11.9295L18.5212 2.76761L20.6388 4.50896L15.3312 11.084H18.8732L22.77 6.25585L27.4945 10.14L26.675 11.084H27.5C28.3201 11.0831 29.1357 11.2054 29.92 11.4467C30.2196 10.8809 30.3148 10.228 30.1894 9.59937C30.064 8.97076 29.7258 8.40546 29.2325 7.99997L20.262 0.624833ZM2.75 12.4682C2.75 12.1011 2.89487 11.749 3.15273 11.4894C3.41059 11.2298 3.76033 11.084 4.125 11.084H5.6595L7.84575 8.31557H4.125C3.03098 8.31557 1.98177 8.75308 1.20818 9.53185C0.434597 10.3106 0 11.3669 0 12.4682V29.0789C0 30.9145 0.724328 32.6749 2.01364 33.9729C3.30295 35.2708 5.05164 36 6.875 36H27.5C28.9587 36 30.3576 35.4166 31.3891 34.3783C32.4205 33.3399 33 31.9316 33 30.4631V19.3893C33 17.9209 32.4205 16.5125 31.3891 15.4742C30.3576 14.4358 28.9587 13.8525 27.5 13.8525H4.125C3.76033 13.8525 3.41059 13.7066 3.15273 13.447C2.89487 13.1874 2.75 12.8354 2.75 12.4682ZM23.375 24.9262H26.125C26.4897 24.9262 26.8394 25.0721 27.0973 25.3317C27.3551 25.5912 27.5 25.9433 27.5 26.3104C27.5 26.6776 27.3551 27.0296 27.0973 27.2892C26.8394 27.5488 26.4897 27.6947 26.125 27.6947H23.375C23.0103 27.6947 22.6606 27.5488 22.4027 27.2892C22.1449 27.0296 22 26.6776 22 26.3104C22 25.9433 22.1449 25.5912 22.4027 25.3317C22.6606 25.0721 23.0103 24.9262 23.375 24.9262Z" fill="#008080" fill-opacity="0.33"/>
</svg>
