<svg width="27" height="38" viewBox="0 0 27 38" fill="none" xmlns="http://www.w3.org/2000/svg">
<path d="M6.6499 25.65V23.75H8.5499V25.65H6.6499Z" fill="#008080" fill-opacity="0.33"/>
<path fill-rule="evenodd" clip-rule="evenodd" d="M9.5 0C8.74413 0 8.01922 0.300267 7.48474 0.834746C6.95027 1.36922 6.65 2.09413 6.65 2.85H2.85C2.09413 2.85 1.36922 3.15027 0.834745 3.68475C0.300267 4.21922 0 4.94413 0 5.7V35.15C0 35.9059 0.300267 36.6308 0.834745 37.1653C1.36922 37.6997 2.09413 38 2.85 38H23.75C24.5059 38 25.2308 37.6997 25.7653 37.1653C26.2997 36.6308 26.6 35.9059 26.6 35.15V5.7C26.6 4.94413 26.2997 4.21922 25.7653 3.68475C25.2308 3.15027 24.5059 2.85 23.75 2.85H19.95C19.95 2.09413 19.6497 1.36922 19.1153 0.834746C18.5808 0.300267 17.8559 0 17.1 0H9.5ZM8.55 2.85C8.55 2.59804 8.65009 2.35641 8.82825 2.17825C9.00641 2.00009 9.24804 1.9 9.5 1.9H17.1C17.352 1.9 17.5936 2.00009 17.7718 2.17825C17.9499 2.35641 18.05 2.59804 18.05 2.85V4.75C18.05 5.00196 17.9499 5.24359 17.7718 5.42175C17.5936 5.59991 17.352 5.7 17.1 5.7H9.5C9.24804 5.7 9.00641 5.59991 8.82825 5.42175C8.65009 5.24359 8.55 5.00196 8.55 4.75V2.85ZM5.7 15.2C5.44804 15.2 5.20641 15.3001 5.02825 15.4782C4.85009 15.6564 4.75 15.898 4.75 16.15C4.75 16.402 4.85009 16.6436 5.02825 16.8218C5.20641 16.9999 5.44804 17.1 5.7 17.1H12.35C12.602 17.1 12.8436 16.9999 13.0218 16.8218C13.1999 16.6436 13.3 16.402 13.3 16.15C13.3 15.898 13.1999 15.6564 13.0218 15.4782C12.8436 15.3001 12.602 15.2 12.35 15.2H5.7ZM4.75 11.4C4.75 11.148 4.85009 10.9064 5.02825 10.7282C5.20641 10.5501 5.44804 10.45 5.7 10.45H20.425C20.677 10.45 20.9186 10.5501 21.0968 10.7282C21.2749 10.9064 21.375 11.148 21.375 11.4C21.375 11.652 21.2749 11.8936 21.0968 12.0718C20.9186 12.2499 20.677 12.35 20.425 12.35H5.7C5.44804 12.35 5.20641 12.2499 5.02825 12.0718C4.85009 11.8936 4.75 11.652 4.75 11.4ZM4.75 22.8C4.75 22.548 4.85009 22.3064 5.02825 22.1282C5.20641 21.9501 5.44804 21.85 5.7 21.85H9.5C9.75196 21.85 9.99359 21.9501 10.1718 22.1282C10.3499 22.3064 10.45 22.548 10.45 22.8V26.6C10.45 26.852 10.3499 27.0936 10.1718 27.2718C9.99359 27.4499 9.75196 27.55 9.5 27.55H5.7C5.44804 27.55 5.20641 27.4499 5.02825 27.2718C4.85009 27.0936 4.75 26.852 4.75 26.6V22.8ZM17.1 26.6C17.8559 26.6 18.5808 26.2997 19.1153 25.7653C19.6497 25.2308 19.95 24.5059 19.95 23.75C19.95 22.9941 19.6497 22.2692 19.1153 21.7347C18.5808 21.2003 17.8559 20.9 17.1 20.9C16.3441 20.9 15.6192 21.2003 15.0847 21.7347C14.5503 22.2692 14.25 22.9941 14.25 23.75C14.25 24.5059 14.5503 25.2308 15.0847 25.7653C15.6192 26.2997 16.3441 26.6 17.1 26.6ZM11.4 30.875C11.4 28.8648 15.1971 27.8521 17.1 27.8521C19.0028 27.8521 22.8 28.8648 22.8 30.875V33.25H11.4V30.875Z" fill="#008080" fill-opacity="0.33"/>
</svg>
