<svg width="16" height="16" viewBox="0 0 16 16" fill="none" xmlns="http://www.w3.org/2000/svg">
<path d="M15.1003 14.5957L10.2325 9.72786C11.2403 8.58899 11.765 7.10241 11.6954 5.58311C11.6258 4.0639 10.9674 2.63148 9.85979 1.58935C8.75214 0.547223 7.28216 -0.0225787 5.76143 0.000685345C4.24078 0.0238409 2.78909 0.638238 1.71367 1.71356C0.638236 2.78899 0.0238316 4.24081 0.000679183 5.76156C-0.0224765 7.2822 0.547248 8.75206 1.58936 9.8599C2.63149 10.9675 4.06386 11.626 5.58314 11.6955C7.10236 11.7651 8.58903 11.2404 9.72792 10.2326L14.5958 15.1004C14.7359 15.2351 14.9581 15.2329 15.0955 15.0955C15.2329 14.9581 15.2351 14.7359 15.1004 14.5958L15.1003 14.5957ZM2.20603 9.48348C1.48635 8.76392 0.996231 7.84697 0.797674 6.84874C0.599101 5.85054 0.70101 4.81585 1.09052 3.87558C1.48003 2.93526 2.13965 2.13158 2.9858 1.56623C3.83209 1.00076 4.82703 0.698971 5.84489 0.698971C6.86264 0.698971 7.85758 1.00076 8.7037 1.56623C9.55 2.13158 10.2096 2.93526 10.599 3.87558C10.9885 4.8159 11.0904 5.85059 10.8918 6.84874C10.6933 7.84694 10.2032 8.76389 9.48348 9.48348C8.5177 10.4472 7.20918 10.9884 5.84481 10.9884C4.48044 10.9884 3.17183 10.4472 2.20614 9.48348H2.20603Z" fill="black" fill-opacity="0.45"/>
</svg>
