<svg width="27" height="27" viewBox="0 0 27 27" fill="none" xmlns="http://www.w3.org/2000/svg">
<path d="M25.25 19.9167V22.5833C25.25 23.2906 24.969 23.9689 24.469 24.469C23.9689 24.969 23.2906 25.25 22.5833 25.25H3.91667C3.20942 25.25 2.53115 24.969 2.03105 24.469C1.53095 23.9689 1.25 23.2906 1.25 22.5833V19.9167M25.25 6.58333V3.91667C25.25 3.20942 24.969 2.53115 24.469 2.03105C23.9689 1.53095 23.2906 1.25 22.5833 1.25H3.91667C3.20942 1.25 2.53115 1.53095 2.03105 2.03105C1.53095 2.53115 1.25 3.20942 1.25 3.91667V6.58333" stroke="#1C16F5" stroke-width="2.5" stroke-linecap="round" stroke-linejoin="round"/>
<path d="M13.2493 14.5846C13.9857 14.5846 14.5827 13.9877 14.5827 13.2513C14.5827 12.5149 13.9857 11.918 13.2493 11.918C12.513 11.918 11.916 12.5149 11.916 13.2513C11.916 13.9877 12.513 14.5846 13.2493 14.5846Z" stroke="#1C16F5" stroke-width="2.5" stroke-linecap="round" stroke-linejoin="round"/>
<path d="M22.508 13.6913C22.6076 13.4065 22.6076 13.0962 22.508 12.8113C21.7574 10.9719 20.4758 9.39776 18.8268 8.28969C17.1778 7.18162 15.2361 6.58984 13.2494 6.58984C11.2627 6.58984 9.32097 7.18162 7.67197 8.28969C6.02296 9.39776 4.74139 10.9719 3.99071 12.8113C3.89112 13.0962 3.89112 13.4065 3.99071 13.6913C4.74139 15.5308 6.02296 17.1049 7.67197 18.213C9.32097 19.3211 11.2627 19.9128 13.2494 19.9128C15.2361 19.9128 17.1778 19.3211 18.8268 18.213C20.4758 17.1049 21.7574 15.5308 22.508 13.6913Z" stroke="#1C16F5" stroke-width="2.5" stroke-linecap="round" stroke-linejoin="round"/>
</svg>
