<svg width="22" height="24" viewBox="0 0 22 24" fill="none" xmlns="http://www.w3.org/2000/svg">
<path d="M6.11111 3.6V6H2.44444V21.6H19.5556V6H15.8889V3.6H19.5556C20.2039 3.6 20.8256 3.85286 21.284 4.30294C21.7425 4.75303 22 5.36348 22 6V21.6C22 22.2365 21.7425 22.847 21.284 23.2971C20.8256 23.7471 20.2039 24 19.5556 24H2.44444C1.79614 24 1.17438 23.7471 0.715961 23.2971C0.257539 22.847 0 22.2365 0 21.6V6C0 5.36348 0.257539 4.75303 0.715961 4.30294C1.17438 3.85286 1.79614 3.6 2.44444 3.6H6.11111ZM11 0C11.3242 0 11.635 0.126428 11.8642 0.351472C12.0935 0.576515 12.2222 0.88174 12.2222 1.2V14.1936L14.4564 12C14.5699 11.8885 14.7047 11.8001 14.8529 11.7397C15.0012 11.6793 15.1602 11.6482 15.3207 11.6482C15.4813 11.6481 15.6402 11.6791 15.7886 11.7394C15.9369 11.7996 16.0717 11.888 16.1853 11.9994C16.2988 12.1108 16.3889 12.2431 16.4504 12.3887C16.5119 12.5343 16.5436 12.6904 16.5436 12.848C16.5437 13.0056 16.5121 13.1617 16.4507 13.3073C16.3894 13.453 16.2994 13.5853 16.1859 13.6968L12.0792 17.7276C11.7927 18.0086 11.4044 18.1665 10.9994 18.1665C10.5944 18.1665 10.206 18.0086 9.91956 17.7276L5.81411 13.6968C5.70063 13.5853 5.61064 13.453 5.54925 13.3073C5.48787 13.1617 5.45631 13.0056 5.45636 12.848C5.45642 12.6904 5.4881 12.5343 5.54958 12.3887C5.61107 12.2431 5.70117 12.1108 5.81472 11.9994C5.92828 11.888 6.06308 11.7996 6.21141 11.7394C6.35975 11.6791 6.51873 11.6481 6.67927 11.6482C6.8398 11.6482 6.99876 11.6793 7.14705 11.7397C7.29535 11.8001 7.43008 11.8885 7.54356 12L9.77778 14.1936V1.2C9.77778 0.88174 9.90655 0.576515 10.1358 0.351472C10.365 0.126428 10.6758 0 11 0Z" fill="#821FF6"/>
</svg>
