<svg width="24" height="24" viewBox="0 0 24 24" fill="none" xmlns="http://www.w3.org/2000/svg">
<path d="M24 10.6667V8H21.3333V5.33333C21.3312 4.62674 21.0496 3.94969 20.55 3.45005C20.0503 2.95041 19.3733 2.66878 18.6667 2.66667H16V0H13.3333V2.66667H10.6667V0H8V2.66667H5.33333C4.62674 2.66878 3.94969 2.95041 3.45005 3.45005C2.95041 3.94969 2.66878 4.62674 2.66667 5.33333V8H0V10.6667H2.66667V13.3333H0V16H2.66667V18.6667C2.66878 19.3733 2.95041 20.0503 3.45005 20.55C3.94969 21.0496 4.62674 21.3312 5.33333 21.3333H8V24H10.6667V21.3333H13.3333V24H16V21.3333H18.6667C19.3733 21.3312 20.0503 21.0496 20.55 20.55C21.0496 20.0503 21.3312 19.3733 21.3333 18.6667V16H24V13.3333H21.3333V10.6667H24ZM18.6667 18.6667H5.33333V5.33333H18.6667V18.6667Z" fill="#54A72F"/>
<path d="M11.1472 6.66797H9.35383L6.67383 17.3346H8.04316L8.66183 14.8346H11.7498L12.3525 17.3346H13.7685L11.1472 6.66797ZM8.84183 13.7666L10.1992 7.93464H10.2605L11.5712 13.7666H8.84183ZM14.9912 6.66797H16.3245V17.3346H14.9912V6.66797Z" fill="#54A72F"/>
</svg>
