<svg width="24" height="19" viewBox="0 0 24 19" fill="none" xmlns="http://www.w3.org/2000/svg">
<path d="M2.4 19C1.74 19 1.1752 18.7676 0.7056 18.3029C0.236 17.8382 0.0008 17.2789 0 16.625V2.375C0 1.72187 0.2352 1.16296 0.7056 0.69825C1.176 0.233541 1.7408 0.000791667 2.4 0H21.6C22.26 0 22.8252 0.23275 23.2956 0.69825C23.766 1.16375 24.0008 1.72267 24 2.375V16.625C24 17.2781 23.7652 17.8374 23.2956 18.3029C22.826 18.7684 22.2608 19.0008 21.6 19H2.4ZM2.4 16.625H21.6V4.75H2.4V16.625ZM10.74 14.9031L6.48 10.6875L8.22 8.96562L10.74 11.4594L15.78 6.47187L17.52 8.19375L10.74 14.9031Z" fill="#EC9D37"/>
</svg>
