<svg width="19" height="19" viewBox="0 0 19 19" fill="none" xmlns="http://www.w3.org/2000/svg">
<path d="M11.9433 9.45506L13.1645 8.23388L9.5001 4.5686L5.83569 8.23301L7.05774 9.45419L8.63647 7.87633V14.3856H10.3637V7.87633L11.9433 9.45506Z" fill="#05912B"/>
<path fill-rule="evenodd" clip-rule="evenodd" d="M16.2174 2.78264C12.5072 -0.927545 6.49282 -0.927545 2.78264 2.78264C-0.927545 6.49282 -0.927545 12.5072 2.78264 16.2174C6.49282 19.9275 12.5072 19.9275 16.2174 16.2174C19.9275 12.5072 19.9275 6.49282 16.2174 2.78264ZM14.9962 4.00382C13.5385 2.54614 11.5615 1.72723 9.5 1.72723C7.43853 1.72723 5.4615 2.54614 4.00382 4.00382C2.54614 5.4615 1.72723 7.43853 1.72723 9.5C1.72723 11.5615 2.54614 13.5385 4.00382 14.9962C5.4615 16.4539 7.43853 17.2728 9.5 17.2728C11.5615 17.2728 13.5385 16.4539 14.9962 14.9962C16.4539 13.5385 17.2728 11.5615 17.2728 9.5C17.2728 7.43853 16.4539 5.4615 14.9962 4.00382Z" fill="#05912B"/>
</svg>
