<svg width="23" height="23" viewBox="0 0 23 23" fill="none" xmlns="http://www.w3.org/2000/svg">
<path d="M11.2491 15.6955C13.7037 15.6955 15.6936 13.7056 15.6936 11.2511C15.6936 8.79648 13.7037 6.80664 11.2491 6.80664C8.79453 6.80664 6.80469 8.79648 6.80469 11.2511C6.80469 13.7056 8.79453 15.6955 11.2491 15.6955Z" stroke="white" stroke-width="2.3" stroke-linecap="round" stroke-linejoin="round"/>
<path d="M1.25 15.6944V6.80556C1.25 3.73731 3.73731 1.25 6.80556 1.25H15.6944C18.7627 1.25 21.25 3.73731 21.25 6.80556V15.6944C21.25 18.7627 18.7627 21.25 15.6944 21.25H6.80556C3.73731 21.25 1.25 18.7627 1.25 15.6944Z" stroke="white" stroke-width="2.5"/>
<path d="M17.3613 5.14974L17.373 5.13672" stroke="white" stroke-width="2.5" stroke-linecap="round" stroke-linejoin="round"/>
</svg>
