<svg width="39" height="39" viewBox="0 0 39 39" fill="none" xmlns="http://www.w3.org/2000/svg">
<rect width="39" height="39" rx="4" fill="#FFABAB"/>
<g clip-path="url(#clip0_1864_1939)">
<path d="M25.7136 20.0008H21.0006C20.4702 20.0008 19.9615 19.7901 19.5864 19.415C19.2114 19.0399 19.0006 18.5312 19.0006 18.0008V13.2748C19.002 12.8148 18.8976 12.3606 18.6954 11.9474C18.4932 11.5342 18.1987 11.173 17.8346 10.8918C17.4897 10.6186 17.0865 10.4284 16.6563 10.3358C16.2262 10.2432 15.7805 10.2507 15.3536 10.3578C12.9293 10.9596 10.783 12.3708 9.26961 14.3581C7.75625 16.3454 6.96652 18.7898 7.031 21.2868C7.09549 23.7839 8.01033 26.1842 9.62425 28.0908C11.2382 29.9973 13.4545 31.2959 15.9066 31.7718C18.6637 32.2995 21.5183 31.7532 23.8857 30.2447C26.2531 28.7362 27.9542 26.3797 28.6406 23.6578C28.7481 23.2304 28.7559 22.7841 28.6635 22.3532C28.5711 21.9223 28.3809 21.5185 28.1076 21.1728C27.8231 20.8092 27.4598 20.5149 27.0452 20.3119C26.6306 20.1089 26.1753 20.0025 25.7136 20.0008ZM26.7016 23.1688C26.3188 24.7106 25.5332 26.1231 24.4253 27.2618C23.3174 28.4004 21.927 29.2244 20.3962 29.6494C18.8654 30.0743 17.2492 30.0851 15.7128 29.6805C14.1765 29.2759 12.7753 28.4704 11.6523 27.3466C10.5294 26.2228 9.72519 24.8208 9.32186 23.2842C8.91854 21.7475 8.93061 20.1313 9.35684 18.6009C9.78307 17.0704 10.6082 15.6807 11.7477 14.5737C12.8873 13.4668 14.3005 12.6824 15.8426 12.3008C15.9746 12.2678 16.1124 12.2662 16.2451 12.2961C16.3777 12.3259 16.5016 12.3865 16.6066 12.4728C16.7307 12.5674 16.8314 12.6893 16.9007 12.8291C16.9701 12.9689 17.0063 13.1227 17.0066 13.2788V18.0008C17.0066 19.0616 17.4281 20.0791 18.1782 20.8292C18.9284 21.5793 19.9458 22.0008 21.0066 22.0008H25.7186C25.876 22.0014 26.0313 22.0377 26.1726 22.107C26.3139 22.1763 26.4377 22.2767 26.5346 22.4008C26.6196 22.5073 26.6789 22.6321 26.7077 22.7653C26.7365 22.8985 26.7341 23.0366 26.7006 23.1688H26.7016Z" fill="#CF4141"/>
<path d="M30.6515 15.4469C30.1911 13.7543 29.2968 12.2114 28.0569 10.9707C26.8171 9.72993 25.2747 8.83446 23.5825 8.37287C23.4051 8.32518 23.2222 8.30097 23.0385 8.30087C22.7743 8.29836 22.5122 8.34824 22.2673 8.44762C22.0225 8.54701 21.7998 8.69393 21.612 8.8799C21.4243 9.06587 21.2753 9.28719 21.1736 9.53109C21.0719 9.77499 21.0195 10.0366 21.0195 10.3009V15.0009C21.0195 15.7965 21.3356 16.5596 21.8982 17.1222C22.4608 17.6848 23.2239 18.0009 24.0195 18.0009H28.7385C29.0472 17.9979 29.351 17.9238 29.6264 17.7844C29.9018 17.6449 30.1413 17.4438 30.3264 17.1968C30.5114 16.9497 30.637 16.6633 30.6934 16.3598C30.7498 16.0563 30.7355 15.7439 30.6515 15.4469ZM28.1535 16.0009H24.0155C23.7503 16.0009 23.496 15.8955 23.3084 15.708C23.1209 15.5204 23.0155 15.2661 23.0155 15.0009L23.0075 10.3079C23.0149 10.3026 23.0235 10.2995 23.0325 10.2989H23.0585C24.4206 10.67 25.6616 11.3918 26.6576 12.3923C27.6535 13.3928 28.3697 14.6371 28.7345 16.0009H28.1535Z" fill="#CF4141"/>
</g>
<defs>
<clipPath id="clip0_1864_1939">
<rect width="24" height="24" fill="white" transform="translate(7 8)"/>
</clipPath>
</defs>
</svg>
