<svg width="200" height="64" viewBox="0 0 200 64" fill="none" xmlns="http://www.w3.org/2000/svg">
<mask id="path-1-outside-1_1864_2139" maskUnits="userSpaceOnUse" x="65.666" y="34.9668" width="135" height="29" fill="black">
<rect fill="white" x="65.666" y="34.9668" width="135" height="29"/>
<path d="M89.8276 56.3774L87.9458 60.736C87.4793 60.9391 86.9485 61.1265 86.3534 61.2984C85.7744 61.4546 85.1712 61.5874 84.5439 61.6968C83.9166 61.8061 83.2732 61.8842 82.6138 61.9311C81.9704 61.9936 81.3592 62.0248 80.7801 62.0248C78.7535 62.0248 76.8716 61.7358 75.1345 61.1578C73.4134 60.5798 71.9256 59.7362 70.671 58.627C69.4165 57.5022 68.4353 56.1274 67.7276 54.5027C67.0199 52.878 66.666 51.0189 66.666 48.9255C66.666 47.0821 67.036 45.3714 67.7758 43.7936C68.5157 42.2157 69.5371 40.8488 70.8399 39.6927C72.1428 38.521 73.6788 37.6071 75.4481 36.951C77.2335 36.2949 79.1636 35.9668 81.2385 35.9668C81.705 35.9668 82.1956 35.9902 82.7103 36.0371C83.241 36.0683 83.7638 36.123 84.2785 36.2011C84.7932 36.2792 85.2918 36.373 85.7744 36.4823C86.2569 36.5761 86.7072 36.6776 87.1254 36.787L88.9349 41.005L88.6454 41.169C88.2111 40.6535 87.6884 40.177 87.0772 39.7396C86.4821 39.3022 85.8226 38.935 85.0988 38.6382C84.3911 38.3258 83.6432 38.0836 82.855 37.9118C82.0669 37.7399 81.2627 37.654 80.4424 37.654C79.1073 37.654 77.8849 37.8805 76.7751 38.3336C75.6814 38.7866 74.7404 39.4506 73.9523 40.3254C73.1802 41.1847 72.5771 42.2392 72.1428 43.4889C71.7085 44.7387 71.4914 46.1525 71.4914 47.7304C71.4914 49.5113 71.7005 51.1751 72.1186 52.7217C72.5368 54.2527 73.1641 55.5884 74.0005 56.7289C74.8369 57.8537 75.8824 58.7441 77.137 59.4003C78.3916 60.0408 79.8553 60.361 81.5281 60.361C82.3323 60.361 83.1204 60.2673 83.8925 60.0798C84.6806 59.8768 85.4205 59.5956 86.1121 59.2362C86.8198 58.8769 87.4632 58.4473 88.0423 57.9474C88.6213 57.4319 89.1199 56.8616 89.5381 56.2368L89.8276 56.3774Z"/>
<path d="M115.547 56.3774L113.665 60.736C113.198 60.9391 112.668 61.1265 112.072 61.2984C111.493 61.4546 110.89 61.5874 110.263 61.6968C109.636 61.8061 108.992 61.8842 108.333 61.9311C107.689 61.9936 107.078 62.0248 106.499 62.0248C104.473 62.0248 102.591 61.7358 100.854 61.1578C99.1325 60.5798 97.6447 59.7362 96.3901 58.627C95.1355 57.5022 94.1544 56.1274 93.4466 54.5027C92.7389 52.878 92.3851 51.0189 92.3851 48.9255C92.3851 47.0821 92.755 45.3714 93.4949 43.7936C94.2348 42.2157 95.2561 40.8488 96.559 39.6927C97.8618 38.521 99.3979 37.6071 101.167 36.951C102.953 36.2949 104.883 35.9668 106.958 35.9668C107.424 35.9668 107.915 35.9902 108.429 36.0371C108.96 36.0683 109.483 36.123 109.998 36.2011C110.512 36.2792 111.011 36.373 111.493 36.4823C111.976 36.5761 112.426 36.6776 112.844 36.787L114.654 41.005L114.364 41.169C113.93 40.6535 113.407 40.177 112.796 39.7396C112.201 39.3022 111.542 38.935 110.818 38.6382C110.11 38.3258 109.362 38.0836 108.574 37.9118C107.786 37.7399 106.982 37.654 106.161 37.654C104.826 37.654 103.604 37.8805 102.494 38.3336C101.4 38.7866 100.459 39.4506 99.6713 40.3254C98.8993 41.1847 98.2961 42.2392 97.8618 43.4889C97.4275 44.7387 97.2104 46.1525 97.2104 47.7304C97.2104 49.5113 97.4195 51.1751 97.8377 52.7217C98.2559 54.2527 98.8832 55.5884 99.7196 56.7289C100.556 57.8537 101.601 58.7441 102.856 59.4003C104.111 60.0408 105.574 60.361 107.247 60.361C108.051 60.361 108.839 60.2673 109.612 60.0798C110.4 59.8768 111.14 59.5956 111.831 59.2362C112.539 58.8769 113.182 58.4473 113.761 57.9474C114.34 57.4319 114.839 56.8616 115.257 56.2368L115.547 56.3774Z"/>
<path d="M139.336 45.9495C139.336 44.5591 139.328 43.3483 139.311 42.3173C139.295 41.2862 139.263 40.3957 139.215 39.6459C139.167 38.896 139.11 38.2711 139.046 37.7712C138.982 37.2556 138.901 36.8338 138.805 36.5058V36.412H142.351V36.5058C142.255 36.8338 142.174 37.2556 142.11 37.7712C142.046 38.2867 141.99 38.9272 141.941 39.6927C141.893 40.4426 141.861 41.3409 141.845 42.3876C141.829 43.4186 141.821 44.6372 141.821 46.0432V52.7686C141.821 54.4558 141.547 55.8931 141 57.0804C140.47 58.2677 139.73 59.244 138.781 60.0095C137.832 60.7594 136.698 61.3062 135.379 61.6499C134.076 62.0092 132.644 62.1889 131.084 62.1889C129.508 62.1889 128.044 62.017 126.693 61.6733C125.342 61.3453 124.168 60.8141 123.171 60.0798C122.19 59.3456 121.409 58.3926 120.83 57.221C120.267 56.0493 119.986 54.6277 119.986 52.9561V46.0432C119.986 44.6372 119.97 43.4186 119.938 42.3876C119.906 41.3409 119.857 40.4426 119.793 39.6927C119.729 38.9272 119.656 38.2867 119.576 37.7712C119.495 37.2556 119.399 36.8338 119.286 36.5058V36.412H124.86V36.5058C124.747 36.8338 124.65 37.2556 124.57 37.7712C124.49 38.2711 124.417 38.896 124.353 39.6459C124.305 40.3957 124.264 41.2862 124.232 42.3173C124.2 43.3483 124.184 44.5591 124.184 45.9495V52.9561C124.184 54.3465 124.401 55.4947 124.835 56.4008C125.27 57.2913 125.841 58.0021 126.548 58.5332C127.256 59.0644 128.06 59.4393 128.961 59.658C129.862 59.8611 130.787 59.9627 131.736 59.9627C132.701 59.9627 133.634 59.8611 134.534 59.658C135.451 59.4393 136.263 59.0644 136.971 58.5332C137.695 58.0021 138.266 57.2913 138.684 56.4008C139.118 55.4947 139.336 54.3465 139.336 52.9561V45.9495Z"/>
<path d="M153.522 49.3707C153.844 49.4176 154.165 49.4567 154.487 49.4879C154.825 49.5035 155.147 49.5113 155.452 49.5113C157.463 49.5113 158.983 48.988 160.012 47.9413C161.058 46.8946 161.58 45.3246 161.58 43.2312C161.58 41.5127 161.162 40.1536 160.326 39.1537C159.506 38.1539 158.291 37.654 156.683 37.654C156.168 37.654 155.71 37.6774 155.307 37.7243C154.921 37.7556 154.592 37.7946 154.318 37.8415C154.013 37.904 153.747 37.9665 153.522 38.0289V49.3707ZM157.213 50.8939C156.892 50.9408 156.57 50.972 156.248 50.9877C155.943 50.9877 155.629 50.9877 155.307 50.9877C155.05 50.9877 154.769 50.9798 154.463 50.9642C154.157 50.9486 153.844 50.9252 153.522 50.8939V52.0422C153.522 53.4325 153.538 54.6511 153.57 55.6978C153.603 56.7289 153.643 57.6193 153.691 58.3692C153.755 59.1191 153.828 59.7518 153.908 60.2673C153.989 60.7672 154.085 61.1812 154.198 61.5093V61.603H148.624V61.5093C148.737 61.1812 148.833 60.7594 148.914 60.2439C149.01 59.7283 149.083 59.0956 149.131 58.3458C149.195 57.5803 149.244 56.6742 149.276 55.6275C149.308 54.5808 149.324 53.3544 149.324 51.9484V46.0432C149.324 44.6372 149.308 43.4186 149.276 42.3876C149.244 41.3409 149.195 40.4426 149.131 39.6927C149.083 38.9272 149.01 38.2867 148.914 37.7712C148.833 37.2556 148.737 36.8338 148.624 36.5058V36.412C148.882 36.4277 149.155 36.4433 149.445 36.4589C149.686 36.4745 149.951 36.4901 150.241 36.5058C150.546 36.5058 150.852 36.5058 151.158 36.5058C151.672 36.5058 152.436 36.4589 153.45 36.3652C154.463 36.2714 155.653 36.2246 157.02 36.2246C158.404 36.2246 159.658 36.3886 160.784 36.7167C161.926 37.0447 162.899 37.5134 163.704 38.1227C164.524 38.7319 165.151 39.474 165.585 40.3489C166.036 41.2237 166.261 42.2001 166.261 43.278C166.261 44.1216 166.14 44.895 165.899 45.598C165.658 46.2853 165.32 46.9102 164.886 47.4726C164.451 48.0194 163.937 48.5037 163.342 48.9255C162.747 49.3473 162.087 49.7144 161.363 50.0269L166.406 56.9398C166.84 57.5022 167.274 58.0411 167.709 58.5567C168.159 59.0722 168.585 59.5331 168.987 59.9392C169.389 60.3454 169.767 60.6891 170.121 60.9703C170.475 61.2359 170.773 61.4156 171.014 61.5093V61.603H164.693C164.693 61.4624 164.588 61.2203 164.379 60.8766C164.186 60.5173 163.953 60.1501 163.679 59.7752C163.422 59.3846 163.157 59.0097 162.883 58.6504C162.626 58.2911 162.433 58.0255 162.304 57.8537L157.213 50.8939Z"/>
<path d="M174.175 46.0432C174.175 44.6372 174.158 43.4186 174.126 42.3876C174.094 41.3409 174.046 40.4426 173.982 39.6927C173.933 38.9272 173.861 38.2867 173.764 37.7712C173.684 37.2556 173.587 36.8338 173.475 36.5058V36.412H179.072V36.5058C178.96 36.8338 178.855 37.2556 178.759 37.7712C178.678 38.2867 178.606 38.9272 178.541 39.6927C178.493 40.4426 178.453 41.3409 178.421 42.3876C178.389 43.4186 178.373 44.6372 178.373 46.0432V51.9484C178.373 53.3544 178.389 54.5808 178.421 55.6275C178.453 56.6742 178.493 57.5803 178.541 58.3458C178.606 59.0956 178.678 59.7283 178.759 60.2439C178.855 60.7594 178.96 61.1812 179.072 61.5093V61.603H173.475V61.5093C173.587 61.1812 173.684 60.7594 173.764 60.2439C173.861 59.7283 173.933 59.0956 173.982 58.3458C174.046 57.5803 174.094 56.6742 174.126 55.6275C174.158 54.5808 174.175 53.3544 174.175 51.9484V46.0432Z"/>
<path d="M197.529 41.3096H197.047C196.95 41.044 196.789 40.7082 196.564 40.302C196.355 39.8958 196.065 39.4974 195.696 39.1069C195.342 38.7163 194.899 38.3883 194.369 38.1227C193.838 37.8415 193.202 37.7009 192.463 37.7009C191.9 37.7009 191.393 37.7946 190.943 37.9821C190.508 38.1539 190.138 38.3961 189.833 38.7085C189.527 39.021 189.294 39.3959 189.133 39.8333C188.972 40.2551 188.892 40.716 188.892 41.2159C188.892 42.0283 189.141 42.8016 189.64 43.5358C190.154 44.2701 190.79 45.0043 191.546 45.7386C192.302 46.4572 193.122 47.1836 194.007 47.9179C194.891 48.6521 195.712 49.4176 196.468 50.2143C197.224 51.0111 197.851 51.8547 198.349 52.7452C198.864 53.6356 199.122 54.5886 199.122 55.604C199.122 56.3539 198.977 57.1272 198.687 57.924C198.414 58.7207 197.963 59.4393 197.336 60.0798C196.709 60.7204 195.905 61.2437 194.923 61.6499C193.942 62.0717 192.752 62.2826 191.353 62.2826C190.581 62.2826 189.841 62.2201 189.133 62.0951C188.441 61.9701 187.798 61.8139 187.203 61.6265C186.624 61.4546 186.101 61.2671 185.635 61.064C185.184 60.8453 184.806 60.6422 184.501 60.4548L184.935 56.0259H185.442C185.603 56.5726 185.836 57.1194 186.141 57.6662C186.463 58.213 186.849 58.7129 187.299 59.1659C187.766 59.6034 188.305 59.9627 188.916 60.2439C189.543 60.5095 190.259 60.6422 191.063 60.6422C191.626 60.6422 192.157 60.5563 192.656 60.3845C193.154 60.197 193.58 59.9392 193.934 59.6112C194.304 59.2831 194.594 58.8847 194.803 58.4161C195.012 57.9318 195.116 57.3928 195.116 56.7992C195.116 56.0962 194.972 55.4478 194.682 54.8542C194.393 54.2449 194.007 53.6669 193.524 53.1201C193.042 52.5577 192.495 52.0187 191.884 51.5032C191.288 50.9877 190.669 50.4643 190.026 49.9331C189.382 49.402 188.755 48.863 188.144 48.3162C187.549 47.7538 187.01 47.1524 186.527 46.5119C186.045 45.8713 185.659 45.1918 185.369 44.4731C185.08 43.7389 184.935 42.9344 184.935 42.0595C184.935 41.1378 185.136 40.3098 185.538 39.5756C185.94 38.8413 186.471 38.2242 187.131 37.7243C187.79 37.2088 188.546 36.8182 189.398 36.5526C190.251 36.2714 191.136 36.1308 192.052 36.1308C192.728 36.1308 193.355 36.1777 193.934 36.2714C194.529 36.3652 195.06 36.4823 195.527 36.6229C196.009 36.7479 196.427 36.8807 196.781 37.0213C197.135 37.1463 197.425 37.2478 197.65 37.3259L197.529 41.3096Z"/>
</mask>
<path d="M89.8276 56.3774L87.9458 60.736C87.4793 60.9391 86.9485 61.1265 86.3534 61.2984C85.7744 61.4546 85.1712 61.5874 84.5439 61.6968C83.9166 61.8061 83.2732 61.8842 82.6138 61.9311C81.9704 61.9936 81.3592 62.0248 80.7801 62.0248C78.7535 62.0248 76.8716 61.7358 75.1345 61.1578C73.4134 60.5798 71.9256 59.7362 70.671 58.627C69.4165 57.5022 68.4353 56.1274 67.7276 54.5027C67.0199 52.878 66.666 51.0189 66.666 48.9255C66.666 47.0821 67.036 45.3714 67.7758 43.7936C68.5157 42.2157 69.5371 40.8488 70.8399 39.6927C72.1428 38.521 73.6788 37.6071 75.4481 36.951C77.2335 36.2949 79.1636 35.9668 81.2385 35.9668C81.705 35.9668 82.1956 35.9902 82.7103 36.0371C83.241 36.0683 83.7638 36.123 84.2785 36.2011C84.7932 36.2792 85.2918 36.373 85.7744 36.4823C86.2569 36.5761 86.7072 36.6776 87.1254 36.787L88.9349 41.005L88.6454 41.169C88.2111 40.6535 87.6884 40.177 87.0772 39.7396C86.4821 39.3022 85.8226 38.935 85.0988 38.6382C84.3911 38.3258 83.6432 38.0836 82.855 37.9118C82.0669 37.7399 81.2627 37.654 80.4424 37.654C79.1073 37.654 77.8849 37.8805 76.7751 38.3336C75.6814 38.7866 74.7404 39.4506 73.9523 40.3254C73.1802 41.1847 72.5771 42.2392 72.1428 43.4889C71.7085 44.7387 71.4914 46.1525 71.4914 47.7304C71.4914 49.5113 71.7005 51.1751 72.1186 52.7217C72.5368 54.2527 73.1641 55.5884 74.0005 56.7289C74.8369 57.8537 75.8824 58.7441 77.137 59.4003C78.3916 60.0408 79.8553 60.361 81.5281 60.361C82.3323 60.361 83.1204 60.2673 83.8925 60.0798C84.6806 59.8768 85.4205 59.5956 86.1121 59.2362C86.8198 58.8769 87.4632 58.4473 88.0423 57.9474C88.6213 57.4319 89.1199 56.8616 89.5381 56.2368L89.8276 56.3774Z" fill="#2A2A2A"/>
<path d="M115.547 56.3774L113.665 60.736C113.198 60.9391 112.668 61.1265 112.072 61.2984C111.493 61.4546 110.89 61.5874 110.263 61.6968C109.636 61.8061 108.992 61.8842 108.333 61.9311C107.689 61.9936 107.078 62.0248 106.499 62.0248C104.473 62.0248 102.591 61.7358 100.854 61.1578C99.1325 60.5798 97.6447 59.7362 96.3901 58.627C95.1355 57.5022 94.1544 56.1274 93.4466 54.5027C92.7389 52.878 92.3851 51.0189 92.3851 48.9255C92.3851 47.0821 92.755 45.3714 93.4949 43.7936C94.2348 42.2157 95.2561 40.8488 96.559 39.6927C97.8618 38.521 99.3979 37.6071 101.167 36.951C102.953 36.2949 104.883 35.9668 106.958 35.9668C107.424 35.9668 107.915 35.9902 108.429 36.0371C108.96 36.0683 109.483 36.123 109.998 36.2011C110.512 36.2792 111.011 36.373 111.493 36.4823C111.976 36.5761 112.426 36.6776 112.844 36.787L114.654 41.005L114.364 41.169C113.93 40.6535 113.407 40.177 112.796 39.7396C112.201 39.3022 111.542 38.935 110.818 38.6382C110.11 38.3258 109.362 38.0836 108.574 37.9118C107.786 37.7399 106.982 37.654 106.161 37.654C104.826 37.654 103.604 37.8805 102.494 38.3336C101.4 38.7866 100.459 39.4506 99.6713 40.3254C98.8993 41.1847 98.2961 42.2392 97.8618 43.4889C97.4275 44.7387 97.2104 46.1525 97.2104 47.7304C97.2104 49.5113 97.4195 51.1751 97.8377 52.7217C98.2559 54.2527 98.8832 55.5884 99.7196 56.7289C100.556 57.8537 101.601 58.7441 102.856 59.4003C104.111 60.0408 105.574 60.361 107.247 60.361C108.051 60.361 108.839 60.2673 109.612 60.0798C110.4 59.8768 111.14 59.5956 111.831 59.2362C112.539 58.8769 113.182 58.4473 113.761 57.9474C114.34 57.4319 114.839 56.8616 115.257 56.2368L115.547 56.3774Z" fill="#2A2A2A"/>
<path d="M139.336 45.9495C139.336 44.5591 139.328 43.3483 139.311 42.3173C139.295 41.2862 139.263 40.3957 139.215 39.6459C139.167 38.896 139.11 38.2711 139.046 37.7712C138.982 37.2556 138.901 36.8338 138.805 36.5058V36.412H142.351V36.5058C142.255 36.8338 142.174 37.2556 142.11 37.7712C142.046 38.2867 141.99 38.9272 141.941 39.6927C141.893 40.4426 141.861 41.3409 141.845 42.3876C141.829 43.4186 141.821 44.6372 141.821 46.0432V52.7686C141.821 54.4558 141.547 55.8931 141 57.0804C140.47 58.2677 139.73 59.244 138.781 60.0095C137.832 60.7594 136.698 61.3062 135.379 61.6499C134.076 62.0092 132.644 62.1889 131.084 62.1889C129.508 62.1889 128.044 62.017 126.693 61.6733C125.342 61.3453 124.168 60.8141 123.171 60.0798C122.19 59.3456 121.409 58.3926 120.83 57.221C120.267 56.0493 119.986 54.6277 119.986 52.9561V46.0432C119.986 44.6372 119.97 43.4186 119.938 42.3876C119.906 41.3409 119.857 40.4426 119.793 39.6927C119.729 38.9272 119.656 38.2867 119.576 37.7712C119.495 37.2556 119.399 36.8338 119.286 36.5058V36.412H124.86V36.5058C124.747 36.8338 124.65 37.2556 124.57 37.7712C124.49 38.2711 124.417 38.896 124.353 39.6459C124.305 40.3957 124.264 41.2862 124.232 42.3173C124.2 43.3483 124.184 44.5591 124.184 45.9495V52.9561C124.184 54.3465 124.401 55.4947 124.835 56.4008C125.27 57.2913 125.841 58.0021 126.548 58.5332C127.256 59.0644 128.06 59.4393 128.961 59.658C129.862 59.8611 130.787 59.9627 131.736 59.9627C132.701 59.9627 133.634 59.8611 134.534 59.658C135.451 59.4393 136.263 59.0644 136.971 58.5332C137.695 58.0021 138.266 57.2913 138.684 56.4008C139.118 55.4947 139.336 54.3465 139.336 52.9561V45.9495Z" fill="#2A2A2A"/>
<path d="M153.522 49.3707C153.844 49.4176 154.165 49.4567 154.487 49.4879C154.825 49.5035 155.147 49.5113 155.452 49.5113C157.463 49.5113 158.983 48.988 160.012 47.9413C161.058 46.8946 161.58 45.3246 161.58 43.2312C161.58 41.5127 161.162 40.1536 160.326 39.1537C159.506 38.1539 158.291 37.654 156.683 37.654C156.168 37.654 155.71 37.6774 155.307 37.7243C154.921 37.7556 154.592 37.7946 154.318 37.8415C154.013 37.904 153.747 37.9665 153.522 38.0289V49.3707ZM157.213 50.8939C156.892 50.9408 156.57 50.972 156.248 50.9877C155.943 50.9877 155.629 50.9877 155.307 50.9877C155.05 50.9877 154.769 50.9798 154.463 50.9642C154.157 50.9486 153.844 50.9252 153.522 50.8939V52.0422C153.522 53.4325 153.538 54.6511 153.57 55.6978C153.603 56.7289 153.643 57.6193 153.691 58.3692C153.755 59.1191 153.828 59.7518 153.908 60.2673C153.989 60.7672 154.085 61.1812 154.198 61.5093V61.603H148.624V61.5093C148.737 61.1812 148.833 60.7594 148.914 60.2439C149.01 59.7283 149.083 59.0956 149.131 58.3458C149.195 57.5803 149.244 56.6742 149.276 55.6275C149.308 54.5808 149.324 53.3544 149.324 51.9484V46.0432C149.324 44.6372 149.308 43.4186 149.276 42.3876C149.244 41.3409 149.195 40.4426 149.131 39.6927C149.083 38.9272 149.01 38.2867 148.914 37.7712C148.833 37.2556 148.737 36.8338 148.624 36.5058V36.412C148.882 36.4277 149.155 36.4433 149.445 36.4589C149.686 36.4745 149.951 36.4901 150.241 36.5058C150.546 36.5058 150.852 36.5058 151.158 36.5058C151.672 36.5058 152.436 36.4589 153.45 36.3652C154.463 36.2714 155.653 36.2246 157.02 36.2246C158.404 36.2246 159.658 36.3886 160.784 36.7167C161.926 37.0447 162.899 37.5134 163.704 38.1227C164.524 38.7319 165.151 39.474 165.585 40.3489C166.036 41.2237 166.261 42.2001 166.261 43.278C166.261 44.1216 166.14 44.895 165.899 45.598C165.658 46.2853 165.32 46.9102 164.886 47.4726C164.451 48.0194 163.937 48.5037 163.342 48.9255C162.747 49.3473 162.087 49.7144 161.363 50.0269L166.406 56.9398C166.84 57.5022 167.274 58.0411 167.709 58.5567C168.159 59.0722 168.585 59.5331 168.987 59.9392C169.389 60.3454 169.767 60.6891 170.121 60.9703C170.475 61.2359 170.773 61.4156 171.014 61.5093V61.603H164.693C164.693 61.4624 164.588 61.2203 164.379 60.8766C164.186 60.5173 163.953 60.1501 163.679 59.7752C163.422 59.3846 163.157 59.0097 162.883 58.6504C162.626 58.2911 162.433 58.0255 162.304 57.8537L157.213 50.8939Z" fill="#2A2A2A"/>
<path d="M174.175 46.0432C174.175 44.6372 174.158 43.4186 174.126 42.3876C174.094 41.3409 174.046 40.4426 173.982 39.6927C173.933 38.9272 173.861 38.2867 173.764 37.7712C173.684 37.2556 173.587 36.8338 173.475 36.5058V36.412H179.072V36.5058C178.96 36.8338 178.855 37.2556 178.759 37.7712C178.678 38.2867 178.606 38.9272 178.541 39.6927C178.493 40.4426 178.453 41.3409 178.421 42.3876C178.389 43.4186 178.373 44.6372 178.373 46.0432V51.9484C178.373 53.3544 178.389 54.5808 178.421 55.6275C178.453 56.6742 178.493 57.5803 178.541 58.3458C178.606 59.0956 178.678 59.7283 178.759 60.2439C178.855 60.7594 178.96 61.1812 179.072 61.5093V61.603H173.475V61.5093C173.587 61.1812 173.684 60.7594 173.764 60.2439C173.861 59.7283 173.933 59.0956 173.982 58.3458C174.046 57.5803 174.094 56.6742 174.126 55.6275C174.158 54.5808 174.175 53.3544 174.175 51.9484V46.0432Z" fill="#2A2A2A"/>
<path d="M197.529 41.3096H197.047C196.95 41.044 196.789 40.7082 196.564 40.302C196.355 39.8958 196.065 39.4974 195.696 39.1069C195.342 38.7163 194.899 38.3883 194.369 38.1227C193.838 37.8415 193.202 37.7009 192.463 37.7009C191.9 37.7009 191.393 37.7946 190.943 37.9821C190.508 38.1539 190.138 38.3961 189.833 38.7085C189.527 39.021 189.294 39.3959 189.133 39.8333C188.972 40.2551 188.892 40.716 188.892 41.2159C188.892 42.0283 189.141 42.8016 189.64 43.5358C190.154 44.2701 190.79 45.0043 191.546 45.7386C192.302 46.4572 193.122 47.1836 194.007 47.9179C194.891 48.6521 195.712 49.4176 196.468 50.2143C197.224 51.0111 197.851 51.8547 198.349 52.7452C198.864 53.6356 199.122 54.5886 199.122 55.604C199.122 56.3539 198.977 57.1272 198.687 57.924C198.414 58.7207 197.963 59.4393 197.336 60.0798C196.709 60.7204 195.905 61.2437 194.923 61.6499C193.942 62.0717 192.752 62.2826 191.353 62.2826C190.581 62.2826 189.841 62.2201 189.133 62.0951C188.441 61.9701 187.798 61.8139 187.203 61.6265C186.624 61.4546 186.101 61.2671 185.635 61.064C185.184 60.8453 184.806 60.6422 184.501 60.4548L184.935 56.0259H185.442C185.603 56.5726 185.836 57.1194 186.141 57.6662C186.463 58.213 186.849 58.7129 187.299 59.1659C187.766 59.6034 188.305 59.9627 188.916 60.2439C189.543 60.5095 190.259 60.6422 191.063 60.6422C191.626 60.6422 192.157 60.5563 192.656 60.3845C193.154 60.197 193.58 59.9392 193.934 59.6112C194.304 59.2831 194.594 58.8847 194.803 58.4161C195.012 57.9318 195.116 57.3928 195.116 56.7992C195.116 56.0962 194.972 55.4478 194.682 54.8542C194.393 54.2449 194.007 53.6669 193.524 53.1201C193.042 52.5577 192.495 52.0187 191.884 51.5032C191.288 50.9877 190.669 50.4643 190.026 49.9331C189.382 49.402 188.755 48.863 188.144 48.3162C187.549 47.7538 187.01 47.1524 186.527 46.5119C186.045 45.8713 185.659 45.1918 185.369 44.4731C185.08 43.7389 184.935 42.9344 184.935 42.0595C184.935 41.1378 185.136 40.3098 185.538 39.5756C185.94 38.8413 186.471 38.2242 187.131 37.7243C187.79 37.2088 188.546 36.8182 189.398 36.5526C190.251 36.2714 191.136 36.1308 192.052 36.1308C192.728 36.1308 193.355 36.1777 193.934 36.2714C194.529 36.3652 195.06 36.4823 195.527 36.6229C196.009 36.7479 196.427 36.8807 196.781 37.0213C197.135 37.1463 197.425 37.2478 197.65 37.3259L197.529 41.3096Z" fill="#2A2A2A"/>
<path d="M89.8276 56.3774L87.9458 60.736C87.4793 60.9391 86.9485 61.1265 86.3534 61.2984C85.7744 61.4546 85.1712 61.5874 84.5439 61.6968C83.9166 61.8061 83.2732 61.8842 82.6138 61.9311C81.9704 61.9936 81.3592 62.0248 80.7801 62.0248C78.7535 62.0248 76.8716 61.7358 75.1345 61.1578C73.4134 60.5798 71.9256 59.7362 70.671 58.627C69.4165 57.5022 68.4353 56.1274 67.7276 54.5027C67.0199 52.878 66.666 51.0189 66.666 48.9255C66.666 47.0821 67.036 45.3714 67.7758 43.7936C68.5157 42.2157 69.5371 40.8488 70.8399 39.6927C72.1428 38.521 73.6788 37.6071 75.4481 36.951C77.2335 36.2949 79.1636 35.9668 81.2385 35.9668C81.705 35.9668 82.1956 35.9902 82.7103 36.0371C83.241 36.0683 83.7638 36.123 84.2785 36.2011C84.7932 36.2792 85.2918 36.373 85.7744 36.4823C86.2569 36.5761 86.7072 36.6776 87.1254 36.787L88.9349 41.005L88.6454 41.169C88.2111 40.6535 87.6884 40.177 87.0772 39.7396C86.4821 39.3022 85.8226 38.935 85.0988 38.6382C84.3911 38.3258 83.6432 38.0836 82.855 37.9118C82.0669 37.7399 81.2627 37.654 80.4424 37.654C79.1073 37.654 77.8849 37.8805 76.7751 38.3336C75.6814 38.7866 74.7404 39.4506 73.9523 40.3254C73.1802 41.1847 72.5771 42.2392 72.1428 43.4889C71.7085 44.7387 71.4914 46.1525 71.4914 47.7304C71.4914 49.5113 71.7005 51.1751 72.1186 52.7217C72.5368 54.2527 73.1641 55.5884 74.0005 56.7289C74.8369 57.8537 75.8824 58.7441 77.137 59.4003C78.3916 60.0408 79.8553 60.361 81.5281 60.361C82.3323 60.361 83.1204 60.2673 83.8925 60.0798C84.6806 59.8768 85.4205 59.5956 86.1121 59.2362C86.8198 58.8769 87.4632 58.4473 88.0423 57.9474C88.6213 57.4319 89.1199 56.8616 89.5381 56.2368L89.8276 56.3774Z" stroke="black" stroke-width="1.6" mask="url(#path-1-outside-1_1864_2139)"/>
<path d="M115.547 56.3774L113.665 60.736C113.198 60.9391 112.668 61.1265 112.072 61.2984C111.493 61.4546 110.89 61.5874 110.263 61.6968C109.636 61.8061 108.992 61.8842 108.333 61.9311C107.689 61.9936 107.078 62.0248 106.499 62.0248C104.473 62.0248 102.591 61.7358 100.854 61.1578C99.1325 60.5798 97.6447 59.7362 96.3901 58.627C95.1355 57.5022 94.1544 56.1274 93.4466 54.5027C92.7389 52.878 92.3851 51.0189 92.3851 48.9255C92.3851 47.0821 92.755 45.3714 93.4949 43.7936C94.2348 42.2157 95.2561 40.8488 96.559 39.6927C97.8618 38.521 99.3979 37.6071 101.167 36.951C102.953 36.2949 104.883 35.9668 106.958 35.9668C107.424 35.9668 107.915 35.9902 108.429 36.0371C108.96 36.0683 109.483 36.123 109.998 36.2011C110.512 36.2792 111.011 36.373 111.493 36.4823C111.976 36.5761 112.426 36.6776 112.844 36.787L114.654 41.005L114.364 41.169C113.93 40.6535 113.407 40.177 112.796 39.7396C112.201 39.3022 111.542 38.935 110.818 38.6382C110.11 38.3258 109.362 38.0836 108.574 37.9118C107.786 37.7399 106.982 37.654 106.161 37.654C104.826 37.654 103.604 37.8805 102.494 38.3336C101.4 38.7866 100.459 39.4506 99.6713 40.3254C98.8993 41.1847 98.2961 42.2392 97.8618 43.4889C97.4275 44.7387 97.2104 46.1525 97.2104 47.7304C97.2104 49.5113 97.4195 51.1751 97.8377 52.7217C98.2559 54.2527 98.8832 55.5884 99.7196 56.7289C100.556 57.8537 101.601 58.7441 102.856 59.4003C104.111 60.0408 105.574 60.361 107.247 60.361C108.051 60.361 108.839 60.2673 109.612 60.0798C110.4 59.8768 111.14 59.5956 111.831 59.2362C112.539 58.8769 113.182 58.4473 113.761 57.9474C114.34 57.4319 114.839 56.8616 115.257 56.2368L115.547 56.3774Z" stroke="black" stroke-width="1.6" mask="url(#path-1-outside-1_1864_2139)"/>
<path d="M139.336 45.9495C139.336 44.5591 139.328 43.3483 139.311 42.3173C139.295 41.2862 139.263 40.3957 139.215 39.6459C139.167 38.896 139.11 38.2711 139.046 37.7712C138.982 37.2556 138.901 36.8338 138.805 36.5058V36.412H142.351V36.5058C142.255 36.8338 142.174 37.2556 142.11 37.7712C142.046 38.2867 141.99 38.9272 141.941 39.6927C141.893 40.4426 141.861 41.3409 141.845 42.3876C141.829 43.4186 141.821 44.6372 141.821 46.0432V52.7686C141.821 54.4558 141.547 55.8931 141 57.0804C140.47 58.2677 139.73 59.244 138.781 60.0095C137.832 60.7594 136.698 61.3062 135.379 61.6499C134.076 62.0092 132.644 62.1889 131.084 62.1889C129.508 62.1889 128.044 62.017 126.693 61.6733C125.342 61.3453 124.168 60.8141 123.171 60.0798C122.19 59.3456 121.409 58.3926 120.83 57.221C120.267 56.0493 119.986 54.6277 119.986 52.9561V46.0432C119.986 44.6372 119.97 43.4186 119.938 42.3876C119.906 41.3409 119.857 40.4426 119.793 39.6927C119.729 38.9272 119.656 38.2867 119.576 37.7712C119.495 37.2556 119.399 36.8338 119.286 36.5058V36.412H124.86V36.5058C124.747 36.8338 124.65 37.2556 124.57 37.7712C124.49 38.2711 124.417 38.896 124.353 39.6459C124.305 40.3957 124.264 41.2862 124.232 42.3173C124.2 43.3483 124.184 44.5591 124.184 45.9495V52.9561C124.184 54.3465 124.401 55.4947 124.835 56.4008C125.27 57.2913 125.841 58.0021 126.548 58.5332C127.256 59.0644 128.06 59.4393 128.961 59.658C129.862 59.8611 130.787 59.9627 131.736 59.9627C132.701 59.9627 133.634 59.8611 134.534 59.658C135.451 59.4393 136.263 59.0644 136.971 58.5332C137.695 58.0021 138.266 57.2913 138.684 56.4008C139.118 55.4947 139.336 54.3465 139.336 52.9561V45.9495Z" stroke="black" stroke-width="1.6" mask="url(#path-1-outside-1_1864_2139)"/>
<path d="M153.522 49.3707C153.844 49.4176 154.165 49.4567 154.487 49.4879C154.825 49.5035 155.147 49.5113 155.452 49.5113C157.463 49.5113 158.983 48.988 160.012 47.9413C161.058 46.8946 161.58 45.3246 161.58 43.2312C161.58 41.5127 161.162 40.1536 160.326 39.1537C159.506 38.1539 158.291 37.654 156.683 37.654C156.168 37.654 155.71 37.6774 155.307 37.7243C154.921 37.7556 154.592 37.7946 154.318 37.8415C154.013 37.904 153.747 37.9665 153.522 38.0289V49.3707ZM157.213 50.8939C156.892 50.9408 156.57 50.972 156.248 50.9877C155.943 50.9877 155.629 50.9877 155.307 50.9877C155.05 50.9877 154.769 50.9798 154.463 50.9642C154.157 50.9486 153.844 50.9252 153.522 50.8939V52.0422C153.522 53.4325 153.538 54.6511 153.57 55.6978C153.603 56.7289 153.643 57.6193 153.691 58.3692C153.755 59.1191 153.828 59.7518 153.908 60.2673C153.989 60.7672 154.085 61.1812 154.198 61.5093V61.603H148.624V61.5093C148.737 61.1812 148.833 60.7594 148.914 60.2439C149.01 59.7283 149.083 59.0956 149.131 58.3458C149.195 57.5803 149.244 56.6742 149.276 55.6275C149.308 54.5808 149.324 53.3544 149.324 51.9484V46.0432C149.324 44.6372 149.308 43.4186 149.276 42.3876C149.244 41.3409 149.195 40.4426 149.131 39.6927C149.083 38.9272 149.01 38.2867 148.914 37.7712C148.833 37.2556 148.737 36.8338 148.624 36.5058V36.412C148.882 36.4277 149.155 36.4433 149.445 36.4589C149.686 36.4745 149.951 36.4901 150.241 36.5058C150.546 36.5058 150.852 36.5058 151.158 36.5058C151.672 36.5058 152.436 36.4589 153.45 36.3652C154.463 36.2714 155.653 36.2246 157.02 36.2246C158.404 36.2246 159.658 36.3886 160.784 36.7167C161.926 37.0447 162.899 37.5134 163.704 38.1227C164.524 38.7319 165.151 39.474 165.585 40.3489C166.036 41.2237 166.261 42.2001 166.261 43.278C166.261 44.1216 166.14 44.895 165.899 45.598C165.658 46.2853 165.32 46.9102 164.886 47.4726C164.451 48.0194 163.937 48.5037 163.342 48.9255C162.747 49.3473 162.087 49.7144 161.363 50.0269L166.406 56.9398C166.84 57.5022 167.274 58.0411 167.709 58.5567C168.159 59.0722 168.585 59.5331 168.987 59.9392C169.389 60.3454 169.767 60.6891 170.121 60.9703C170.475 61.2359 170.773 61.4156 171.014 61.5093V61.603H164.693C164.693 61.4624 164.588 61.2203 164.379 60.8766C164.186 60.5173 163.953 60.1501 163.679 59.7752C163.422 59.3846 163.157 59.0097 162.883 58.6504C162.626 58.2911 162.433 58.0255 162.304 57.8537L157.213 50.8939Z" stroke="black" stroke-width="1.6" mask="url(#path-1-outside-1_1864_2139)"/>
<path d="M174.175 46.0432C174.175 44.6372 174.158 43.4186 174.126 42.3876C174.094 41.3409 174.046 40.4426 173.982 39.6927C173.933 38.9272 173.861 38.2867 173.764 37.7712C173.684 37.2556 173.587 36.8338 173.475 36.5058V36.412H179.072V36.5058C178.96 36.8338 178.855 37.2556 178.759 37.7712C178.678 38.2867 178.606 38.9272 178.541 39.6927C178.493 40.4426 178.453 41.3409 178.421 42.3876C178.389 43.4186 178.373 44.6372 178.373 46.0432V51.9484C178.373 53.3544 178.389 54.5808 178.421 55.6275C178.453 56.6742 178.493 57.5803 178.541 58.3458C178.606 59.0956 178.678 59.7283 178.759 60.2439C178.855 60.7594 178.96 61.1812 179.072 61.5093V61.603H173.475V61.5093C173.587 61.1812 173.684 60.7594 173.764 60.2439C173.861 59.7283 173.933 59.0956 173.982 58.3458C174.046 57.5803 174.094 56.6742 174.126 55.6275C174.158 54.5808 174.175 53.3544 174.175 51.9484V46.0432Z" stroke="black" stroke-width="1.6" mask="url(#path-1-outside-1_1864_2139)"/>
<path d="M197.529 41.3096H197.047C196.95 41.044 196.789 40.7082 196.564 40.302C196.355 39.8958 196.065 39.4974 195.696 39.1069C195.342 38.7163 194.899 38.3883 194.369 38.1227C193.838 37.8415 193.202 37.7009 192.463 37.7009C191.9 37.7009 191.393 37.7946 190.943 37.9821C190.508 38.1539 190.138 38.3961 189.833 38.7085C189.527 39.021 189.294 39.3959 189.133 39.8333C188.972 40.2551 188.892 40.716 188.892 41.2159C188.892 42.0283 189.141 42.8016 189.64 43.5358C190.154 44.2701 190.79 45.0043 191.546 45.7386C192.302 46.4572 193.122 47.1836 194.007 47.9179C194.891 48.6521 195.712 49.4176 196.468 50.2143C197.224 51.0111 197.851 51.8547 198.349 52.7452C198.864 53.6356 199.122 54.5886 199.122 55.604C199.122 56.3539 198.977 57.1272 198.687 57.924C198.414 58.7207 197.963 59.4393 197.336 60.0798C196.709 60.7204 195.905 61.2437 194.923 61.6499C193.942 62.0717 192.752 62.2826 191.353 62.2826C190.581 62.2826 189.841 62.2201 189.133 62.0951C188.441 61.9701 187.798 61.8139 187.203 61.6265C186.624 61.4546 186.101 61.2671 185.635 61.064C185.184 60.8453 184.806 60.6422 184.501 60.4548L184.935 56.0259H185.442C185.603 56.5726 185.836 57.1194 186.141 57.6662C186.463 58.213 186.849 58.7129 187.299 59.1659C187.766 59.6034 188.305 59.9627 188.916 60.2439C189.543 60.5095 190.259 60.6422 191.063 60.6422C191.626 60.6422 192.157 60.5563 192.656 60.3845C193.154 60.197 193.58 59.9392 193.934 59.6112C194.304 59.2831 194.594 58.8847 194.803 58.4161C195.012 57.9318 195.116 57.3928 195.116 56.7992C195.116 56.0962 194.972 55.4478 194.682 54.8542C194.393 54.2449 194.007 53.6669 193.524 53.1201C193.042 52.5577 192.495 52.0187 191.884 51.5032C191.288 50.9877 190.669 50.4643 190.026 49.9331C189.382 49.402 188.755 48.863 188.144 48.3162C187.549 47.7538 187.01 47.1524 186.527 46.5119C186.045 45.8713 185.659 45.1918 185.369 44.4731C185.08 43.7389 184.935 42.9344 184.935 42.0595C184.935 41.1378 185.136 40.3098 185.538 39.5756C185.94 38.8413 186.471 38.2242 187.131 37.7243C187.79 37.2088 188.546 36.8182 189.398 36.5526C190.251 36.2714 191.136 36.1308 192.052 36.1308C192.728 36.1308 193.355 36.1777 193.934 36.2714C194.529 36.3652 195.06 36.4823 195.527 36.6229C196.009 36.7479 196.427 36.8807 196.781 37.0213C197.135 37.1463 197.425 37.2478 197.65 37.3259L197.529 41.3096Z" stroke="black" stroke-width="1.6" mask="url(#path-1-outside-1_1864_2139)"/>
<path d="M45.488 42.2167C44.5709 42.2373 43.5495 42.2578 42.4239 42.2784C41.2983 42.2784 40.1205 42.2887 38.8907 42.3092C37.6817 42.3092 36.4415 42.3195 35.1699 42.3401H28.0723L36.702 22.634L45.488 42.2167Z" fill="#3F7D6B"/>
<path fill-rule="evenodd" clip-rule="evenodd" d="M64.0348 63.1579H0V0H64.0348V63.1579ZM36.7645 14.4309L18.8486 53.6271C18.1815 55.1279 17.5666 56.382 17.0038 57.3894C16.441 58.3762 15.972 59.065 15.5968 59.4556V59.579H21.9753V59.4556C21.9336 59.3939 21.8919 59.2808 21.8502 59.1164C21.8085 58.9313 21.7877 58.7052 21.7877 58.4379C21.7877 57.5128 21.9648 56.5979 22.3192 55.6933C22.6736 54.7887 23.0071 53.956 23.3197 53.1953L26.9155 45.0539C28.1453 45.0127 29.521 44.9922 31.0427 44.9922H42.1112C44.0498 44.9922 45.6027 45.0127 46.77 45.0539L50.5533 53.442C51.0536 54.5933 51.3871 55.5596 51.5538 56.3409C51.7414 57.1016 51.8352 57.8006 51.8352 58.4379C51.8352 58.6024 51.8248 58.7874 51.804 58.993C51.7831 59.1986 51.7519 59.3528 51.7102 59.4556V59.579H60.2773V59.4556C60.1731 59.3322 59.9751 59.0444 59.6832 58.5921C59.3914 58.1398 59.0579 57.5847 58.6827 56.9268C58.3075 56.2689 57.901 55.5288 57.4633 54.7064C57.0464 53.8635 56.6399 53 56.2439 52.116L39.2659 14.4309H36.7645Z" fill="#3F7D6B"/>
<path d="M70.8912 30.3067V21.6693H68.4219V20.3404H74.8448V21.6693H72.3492V30.3067H70.8912Z" fill="#3F7D6B"/>
<path d="M77.2667 30.3067V20.3404H79.4602C79.9506 20.3404 80.4234 20.3902 80.8788 20.4896C81.3429 20.589 81.7544 20.7563 82.1134 20.9913C82.4725 21.2263 82.757 21.5382 82.9672 21.9269C83.1774 22.3156 83.2824 22.7947 83.2824 23.3642C83.2824 24.0241 83.1336 24.5981 82.8359 25.0863C82.5381 25.5744 82.0872 25.9495 81.483 26.2117L83.7816 30.3067H82.0872L80.1432 26.5371C79.9944 26.5462 79.8105 26.5552 79.5916 26.5642C79.3814 26.5642 79.2063 26.5642 79.0662 26.5642H78.6984V30.3067H77.2667ZM78.6984 25.3303H79.631C80.1126 25.3303 80.4979 25.2671 80.7868 25.1405C81.0845 25.0139 81.3122 24.8557 81.4698 24.6659C81.6275 24.467 81.7325 24.2546 81.7851 24.0286C81.8464 23.7936 81.877 23.5766 81.877 23.3778C81.877 22.9348 81.7763 22.5868 81.5749 22.3337C81.3823 22.0715 81.1108 21.8862 80.7606 21.7778C80.4191 21.6602 80.025 21.6015 79.5784 21.6015H78.6984V25.3303Z" fill="#3F7D6B"/>
<path d="M89.8047 30.4422C88.964 30.4422 88.2898 30.266 87.7819 29.9134C87.2828 29.5609 86.9194 29.0547 86.6917 28.3948C86.4728 27.7349 86.3634 26.9529 86.3634 26.049V20.3404H87.8345V26.0761C87.8345 27.1337 87.9877 27.8931 88.2942 28.3541C88.6094 28.8061 89.1129 29.0321 89.8047 29.0321C90.4964 29.0321 90.9956 28.8106 91.302 28.3677C91.6085 27.9247 91.7618 27.1609 91.7618 26.0761V20.3404H93.246V26.049C93.246 27.4411 92.9658 28.5213 92.4054 29.2897C91.8449 30.0581 90.978 30.4422 89.8047 30.4422Z" fill="#3F7D6B"/>
<path d="M98.6858 30.4422C98.3181 30.4422 97.9547 30.397 97.5956 30.3067C97.2366 30.2072 96.917 30.0897 96.6368 29.9541C96.3566 29.8095 96.1464 29.6648 96.0063 29.5202L96.7025 28.2321C96.7988 28.3134 96.9477 28.4219 97.1491 28.5575C97.3592 28.684 97.6 28.797 97.8715 28.8965C98.1429 28.9959 98.4144 29.0456 98.6858 29.0456C99.1324 29.0456 99.5046 28.9371 99.8023 28.7202C100.109 28.5032 100.262 28.1869 100.262 27.771C100.262 27.4275 100.174 27.1428 99.9993 26.9168C99.8242 26.6908 99.5921 26.4919 99.3032 26.3202C99.023 26.1484 98.7165 25.9857 98.3837 25.832C98.0597 25.6693 97.7489 25.4885 97.4512 25.2897C97.1097 25.0546 96.8119 24.7428 96.558 24.354C96.3041 23.9653 96.1771 23.4636 96.1771 22.8489C96.1771 22.2433 96.3084 21.7461 96.5711 21.3574C96.8426 20.9687 97.1972 20.6794 97.635 20.4896C98.0816 20.2907 98.5676 20.1913 99.093 20.1913C99.5133 20.1913 99.8723 20.2365 100.17 20.3269C100.468 20.4173 100.717 20.5258 100.919 20.6523C101.12 20.7789 101.278 20.8919 101.392 20.9913L100.695 22.2252C100.547 22.0625 100.323 21.9133 100.026 21.7778C99.7279 21.6331 99.3951 21.5608 99.0273 21.5608C98.5983 21.5608 98.2568 21.6648 98.0028 21.8727C97.7489 22.0715 97.6219 22.3698 97.6219 22.7676C97.6219 23.1201 97.7358 23.423 97.9634 23.6761C98.1911 23.9201 98.4801 24.1461 98.8303 24.354C99.1893 24.5529 99.5571 24.7563 99.9336 24.9642C100.31 25.1721 100.643 25.4162 100.932 25.6964C101.168 25.9134 101.37 26.1846 101.536 26.51C101.702 26.8354 101.786 27.2015 101.786 27.6083C101.786 28.223 101.646 28.7428 101.365 29.1677C101.094 29.5925 100.726 29.9134 100.262 30.1304C99.7979 30.3383 99.2725 30.4422 98.6858 30.4422Z" fill="#3F7D6B"/>
<path d="M106.122 30.3067V21.6693H103.652V20.3404H110.075V21.6693H107.58V30.3067H106.122Z" fill="#3F7D6B"/>
<path d="M121.778 30.4422C121.121 30.4422 120.499 30.3247 119.912 30.0897C119.335 29.8547 118.822 29.5157 118.376 29.0727C117.929 28.6208 117.574 28.0784 117.312 27.4456C117.058 26.8128 116.931 26.0987 116.931 25.3032C116.931 24.4987 117.058 23.78 117.312 23.1473C117.574 22.5145 117.929 21.9766 118.376 21.5337C118.831 21.0907 119.348 20.7563 119.926 20.5303C120.512 20.2952 121.13 20.1777 121.778 20.1777C122.426 20.1777 123.039 20.2952 123.616 20.5303C124.203 20.7563 124.72 21.0907 125.166 21.5337C125.622 21.9766 125.976 22.5145 126.23 23.1473C126.493 23.78 126.624 24.4987 126.624 25.3032C126.624 26.3066 126.423 27.1789 126.02 27.9202C125.617 28.6614 125.088 29.2445 124.431 29.6694L125.626 31.5812H124.168L123.301 30.2117C122.811 30.3654 122.303 30.4422 121.778 30.4422ZM121.778 29.0727C122.04 29.0727 122.294 29.0456 122.539 28.9914L121.659 27.5134H123.13L123.695 28.4626C124.107 28.1552 124.435 27.7394 124.68 27.2151C124.934 26.6818 125.061 26.049 125.061 25.3168C125.061 24.4942 124.912 23.8072 124.615 23.2557C124.317 22.6953 123.919 22.2749 123.419 21.9947C122.929 21.7054 122.382 21.5608 121.778 21.5608C121.173 21.5608 120.622 21.7054 120.123 21.9947C119.632 22.2749 119.238 22.6953 118.94 23.2557C118.643 23.8072 118.494 24.4942 118.494 25.3168C118.494 26.1303 118.647 26.8174 118.954 27.3778C119.26 27.9292 119.663 28.3496 120.162 28.6388C120.661 28.9281 121.2 29.0727 121.778 29.0727Z" fill="#3F7D6B"/>
<path d="M132.877 30.4422C132.037 30.4422 131.363 30.266 130.855 29.9134C130.356 29.5609 129.992 29.0547 129.765 28.3948C129.546 27.7349 129.436 26.9529 129.436 26.049V20.3404H130.907V26.0761C130.907 27.1337 131.061 27.8931 131.367 28.3541C131.682 28.8061 132.186 29.0321 132.877 29.0321C133.569 29.0321 134.068 28.8106 134.375 28.3677C134.681 27.9247 134.835 27.1609 134.835 26.0761V20.3404H136.319V26.049C136.319 27.4411 136.039 28.5213 135.478 29.2897C134.918 30.0581 134.051 30.4422 132.877 30.4422Z" fill="#3F7D6B"/>
<path d="M142.671 20.3269H142.816L147.465 30.3067H145.771L144.943 28.3541H140.517L139.69 30.3067H138.048L142.671 20.3269ZM142.737 23.2151L142.159 24.571L141.108 26.9846H144.365L143.328 24.5846L142.763 23.2151H142.737Z" fill="#3F7D6B"/>
<path d="M156.616 30.3067L150.968 23.8523L151.007 24.9371V30.3067H149.536V20.3269H149.72L155.394 26.8626L155.342 25.7236V20.3404H156.813V30.3067H156.616Z" fill="#3F7D6B"/>
<path d="M161.706 30.3067V21.6693H159.237V20.3404H165.659V21.6693H163.164V30.3067H161.706Z" fill="#3F7D6B"/>
<path d="M168.188 30.3067V20.3404H169.659V30.3067H168.188Z" fill="#3F7D6B"/>
<path d="M172.948 30.3067V20.3404H177.479V21.6557H174.406V24.4761H176.796V25.8049H174.406V30.3067H172.948Z" fill="#3F7D6B"/>
<path d="M180.217 30.3067V20.3404H181.688V30.3067H180.217Z" fill="#3F7D6B"/>
<path d="M184.977 30.3067V20.3404H189.206V21.6693H186.435V24.4218H188.668V25.7778H186.435V28.9643H189.64V30.3067H184.977Z" fill="#3F7D6B"/>
<path d="M192.435 30.3067V20.3404H194.759C195.626 20.3404 196.362 20.4399 196.966 20.6388C197.579 20.8376 198.083 21.1043 198.477 21.4388C198.871 21.7642 199.177 22.1393 199.396 22.5642C199.624 22.98 199.781 23.4139 199.869 23.8659C199.956 24.3089 200 24.7382 200 25.1541C200 25.7778 199.913 26.397 199.738 27.0117C199.571 27.6174 199.291 28.1688 198.897 28.666C198.503 29.1631 197.973 29.5609 197.308 29.8592C196.651 30.1575 195.828 30.3067 194.838 30.3067H192.435ZM193.906 28.9643H194.996C195.644 28.9643 196.187 28.8603 196.625 28.6524C197.071 28.4445 197.426 28.1643 197.688 27.8117C197.96 27.4501 198.153 27.0479 198.266 26.6049C198.389 26.1529 198.45 25.6919 198.45 25.2219C198.45 24.58 198.341 23.9925 198.122 23.4591C197.903 22.9167 197.54 22.4828 197.032 22.1574C196.533 21.832 195.854 21.6693 194.996 21.6693H193.906V28.9643Z" fill="#3F7D6B"/>
</svg>
