<svg width="147" height="135" viewBox="0 0 147 135" fill="none" xmlns="http://www.w3.org/2000/svg">
<g filter="url(#filter0_d_948_2242)">
<path d="M73.5 42.5C88.9639 42.5 101.5 54.9088 101.5 70.2158C101.5 76.0481 99.6777 81.4581 96.5693 85.9229L99.6055 98.502L88.3906 93.6895C84.0773 96.3761 78.9726 97.9326 73.5 97.9326C58.036 97.9326 45.5 85.523 45.5 70.2158C45.5001 54.9088 58.0361 42.5 73.5 42.5Z" fill="#FFFFFA"/>
<path d="M101.5 70.2158H102V70.2158L101.5 70.2158ZM96.5693 85.9229L96.159 85.6372L96.0306 85.8217L96.0833 86.0402L96.5693 85.9229ZM99.6055 98.502L99.4083 98.9614L100.326 99.3551L100.092 98.3846L99.6055 98.502ZM88.3906 93.6895L88.5878 93.23L88.3479 93.127L88.1263 93.265L88.3906 93.6895ZM45.5 70.2158L45 70.2158V70.2158H45.5ZM73.5 42.5V43C88.6926 43 101 55.1897 101 70.2158L101.5 70.2158L102 70.2158C102 54.6278 89.2352 42 73.5 42V42.5ZM101.5 70.2158H101C101 75.9422 99.2111 81.2532 96.159 85.6372L96.5693 85.9229L96.9797 86.2085C100.144 81.6631 102 76.154 102 70.2158H101.5ZM96.5693 85.9229L96.0833 86.0402L99.1194 98.6193L99.6055 98.502L100.092 98.3846L97.0554 85.8055L96.5693 85.9229ZM99.6055 98.502L99.8026 98.0425L88.5878 93.23L88.3906 93.6895L88.1935 94.1489L99.4083 98.9614L99.6055 98.502ZM88.3906 93.6895L88.1263 93.265C83.89 95.9037 78.8765 97.4326 73.5 97.4326V97.9326V98.4326C79.0686 98.4326 84.2645 96.8485 88.655 94.1139L88.3906 93.6895ZM73.5 97.9326V97.4326C58.3074 97.4326 46 85.2421 46 70.2158H45.5H45C45 85.8039 57.7647 98.4326 73.5 98.4326V97.9326ZM45.5 70.2158L46 70.2158C46.0001 55.1897 58.3074 43 73.5 43V42.5V42C57.7648 42 45.0001 54.6278 45 70.2158L45.5 70.2158Z" fill="#53B1B1" fill-opacity="0.5"/>
</g>
<mask id="mask0_948_2242" style="mask-type:luminance" maskUnits="userSpaceOnUse" x="61" y="58" width="25" height="25">
<rect x="61.5" y="58.501" width="24" height="24" fill="white"/>
</mask>
<g mask="url(#mask0_948_2242)">
<path fill-rule="evenodd" clip-rule="evenodd" d="M68.46 73.1412V65.7012H63.9C62.58 65.7012 61.5 66.7812 61.5 68.1012V75.3012C61.5 76.6212 62.58 77.7012 63.9 77.7012H65.1V81.3012L68.7 77.7012H74.7C76.02 77.7012 77.1 76.6212 77.1 75.3012V73.1172C77.0232 73.134 76.9416 73.1424 76.86 73.1424H68.46V73.1412ZM83.1 59.7012H72.3C70.98 59.7012 69.9 60.7812 69.9 62.1012V71.7012H78.3L81.9 75.3012V71.7012H83.1C84.42 71.7012 85.5 70.6224 85.5 69.3012V62.1012C85.5 60.7812 84.42 59.7012 83.1 59.7012Z" fill="url(#paint0_linear_948_2242)"/>
</g>
<defs>
<filter id="filter0_d_948_2242" x="0" y="0" width="147" height="147.355" filterUnits="userSpaceOnUse" color-interpolation-filters="sRGB">
<feFlood flood-opacity="0" result="BackgroundImageFix"/>
<feColorMatrix in="SourceAlpha" type="matrix" values="0 0 0 0 0 0 0 0 0 0 0 0 0 0 0 0 0 0 127 0" result="hardAlpha"/>
<feOffset dy="3"/>
<feGaussianBlur stdDeviation="22.5"/>
<feColorMatrix type="matrix" values="0 0 0 0 0.0392157 0 0 0 0 0.027451 0 0 0 0 0.298039 0 0 0 0.0784314 0"/>
<feBlend mode="normal" in2="BackgroundImageFix" result="effect1_dropShadow_948_2242"/>
<feBlend mode="normal" in="SourceGraphic" in2="effect1_dropShadow_948_2242" result="shape"/>
</filter>
<linearGradient id="paint0_linear_948_2242" x1="49.5" y1="70.5012" x2="70.9806" y2="94.3686" gradientUnits="userSpaceOnUse">
<stop stop-color="#53B1B1"/>
<stop offset="0.551645" stop-color="#008080"/>
<stop offset="1" stop-color="#1C5858"/>
</linearGradient>
</defs>
</svg>
