<svg width="23" height="23" viewBox="0 0 23 23" fill="none" xmlns="http://www.w3.org/2000/svg">
<path d="M5.86505 11.0003V6.18983C5.86505 5.90305 5.9703 5.65834 6.18078 5.45571C6.39038 5.25307 6.64546 5.15175 6.94602 5.15175C7.24659 5.15175 7.50167 5.25307 7.71126 5.45571C7.92175 5.65834 8.02699 5.90305 8.02699 6.18983V11.0003C8.02699 11.2871 7.92175 11.5318 7.71126 11.7344C7.50078 11.937 7.2457 12.0384 6.94602 12.0384C6.64635 12.0384 6.39127 11.937 6.18078 11.7344C5.9703 11.5318 5.86505 11.2871 5.86505 11.0003ZM11.6806 12.6888V1.04065C11.6806 0.752156 11.7854 0.506589 11.995 0.303953C12.2055 0.101318 12.4606 0 12.7602 0C13.0608 0 13.3159 0.101318 13.5255 0.303953C13.736 0.506589 13.8412 0.752156 13.8412 1.04065V12.6888C13.8412 13.0357 13.7306 13.2958 13.5094 13.4693C13.2873 13.6427 13.039 13.7294 12.7643 13.7294C12.4896 13.7294 12.2398 13.6427 12.0151 13.4693C11.7903 13.2958 11.6788 13.0357 11.6806 12.6888ZM0 15.4475V11.3442C0 11.0557 0.104797 10.8101 0.314391 10.6075C0.524876 10.4048 0.780402 10.3035 1.08097 10.3035C1.38153 10.3035 1.63661 10.4048 1.84621 10.6075C2.0558 10.8101 2.1606 11.0557 2.1606 11.3442V15.4488C2.1606 15.7957 2.05 16.0554 1.82882 16.228C1.60763 16.4015 1.35924 16.4882 1.08364 16.4882C0.808942 16.4882 0.559214 16.4015 0.334458 16.228C0.111486 16.0554 0 15.7957 0 15.4488M1.45155 23C1.15277 23 0.946293 22.8691 0.832131 22.6072C0.717969 22.3462 0.769699 22.1105 0.98732 21.9001L6.21557 16.8681C6.40911 16.6809 6.64769 16.5766 6.93131 16.5552C7.21493 16.5337 7.46688 16.6166 7.68718 16.8037L11.6806 20.1073L20.715 11.4086H18.3176C18.1276 11.4086 17.9689 11.3467 17.8413 11.2231C17.7138 11.0995 17.6496 10.9462 17.6487 10.7633C17.6478 10.5804 17.712 10.4276 17.8413 10.3048C17.9706 10.182 18.1294 10.1206 18.3176 10.1206H21.919C22.2258 10.1206 22.4827 10.2202 22.6896 10.4194C22.8965 10.6186 23 10.8659 23 11.1613V14.6284C23 14.8113 22.9358 14.9641 22.8074 15.0869C22.6789 15.2097 22.5197 15.2715 22.3297 15.2724C22.1398 15.2732 21.981 15.2114 21.8535 15.0869C21.7259 14.9624 21.6622 14.8096 21.6622 14.6284V12.3204L12.4258 21.2123C12.2322 21.3987 11.9937 21.5026 11.71 21.524C11.4264 21.5455 11.1745 21.4626 10.9542 21.2755L6.96074 17.9719L1.9345 22.812C1.87742 22.8635 1.80563 22.9077 1.71911 22.9446C1.6326 22.9815 1.54341 23 1.45155 23Z" fill="#868A95"/>
</svg>
