<svg width="22" height="29" viewBox="0 0 22 29" fill="none" xmlns="http://www.w3.org/2000/svg">
<path fill-rule="evenodd" clip-rule="evenodd" d="M10.8313 27.2824L11.8652 26.1174C13.0384 24.7748 14.0942 23.4973 15.0326 22.2848L15.8076 21.2623C19.0443 16.9027 20.6626 13.4437 20.6626 10.8854C20.6626 5.42573 16.2615 1 10.8313 1C5.40115 1 1 5.42573 1 10.8854C1 13.4437 2.61834 16.9032 5.85503 21.264L6.63007 22.2864C7.96966 24.0025 9.371 25.6678 10.8313 27.2824Z" stroke="#868A95" stroke-width="2" stroke-linecap="round" stroke-linejoin="round"/>
<path d="M10.8313 14.9284C13.0936 14.9284 14.9277 13.0943 14.9277 10.832C14.9277 8.56961 13.0936 6.7356 10.8313 6.7356C8.56891 6.7356 6.73489 8.56961 6.73489 10.832C6.73489 13.0943 8.56891 14.9284 10.8313 14.9284Z" stroke="#868A95" stroke-width="2" stroke-linecap="round" stroke-linejoin="round"/>
</svg>
