<svg width="26" height="24" viewBox="0 0 26 24" fill="none" xmlns="http://www.w3.org/2000/svg">
<path d="M13 10.8826C11.4685 10.8826 10.1567 10.3492 9.06471 9.28257C7.97271 8.21591 7.42733 6.93518 7.42857 5.4404C7.42981 3.94562 7.97519 2.66369 9.06471 1.59461C10.1542 0.525522 11.466 -0.00599584 13 5.1014e-05C14.534 0.00609786 15.8458 0.53822 16.9353 1.59642C18.0248 2.65462 18.5702 3.93655 18.5714 5.44222C18.5727 6.94788 18.0273 8.2286 16.9353 9.28438C15.8433 10.3402 14.5315 10.8729 13 10.8826ZM0 23.9982V21.0141C0 20.2655 0.222857 19.5652 0.668571 18.9134C1.11552 18.2603 1.716 17.7536 2.47 17.3932C4.22314 16.5721 5.97752 15.9565 7.73314 15.5465C9.48752 15.1353 11.2431 14.9297 13 14.9297C14.7569 14.9297 16.5131 15.1353 18.2687 15.5465C20.0243 15.9577 21.7775 16.5733 23.5281 17.3932C24.2834 17.7536 24.8839 18.2603 25.3296 18.9134C25.7765 19.5652 26 20.2655 26 21.0141V24L0 23.9982ZM1.85714 22.1841H24.1429V21.0123C24.1429 20.6107 24.0098 20.2328 23.7436 19.8785C23.4786 19.5253 23.1115 19.2266 22.6423 18.9823C21.1145 18.2591 19.539 17.7052 17.9159 17.3207C16.2927 16.9361 14.6541 16.7438 13 16.7438C11.3459 16.7438 9.7079 16.9361 8.086 17.3207C6.4641 17.7052 4.888 18.2591 3.35771 18.9823C2.88724 19.2266 2.52014 19.5253 2.25643 19.8785C1.99024 20.2328 1.85714 20.6113 1.85714 21.0141V22.1841ZM13 9.06851C14.0214 9.06851 14.8961 8.71296 15.6241 8.00185C16.3521 7.29074 16.7155 6.43632 16.7143 5.43859C16.713 4.44086 16.3497 3.58704 15.6241 2.87714C14.8986 2.16724 14.0239 1.81169 13 1.81048C11.9761 1.80927 11.102 2.16482 10.3777 2.87714C9.65343 3.58946 9.28943 4.44328 9.28571 5.43859C9.282 6.4339 9.646 7.28832 10.3777 8.00185C11.1094 8.71538 11.9835 9.07033 13 9.0667" fill="#20C0A0"/>
</svg>
