<svg width="16" height="12" viewBox="0 0 16 12" fill="none" xmlns="http://www.w3.org/2000/svg">
<path d="M15.9088 0.42877C15.8411 0.299421 15.7392 0.191084 15.6142 0.115502C15.4893 0.0399197 15.346 -2.40523e-05 15.2 1.08657e-08H0.798377C0.652636 0.000601897 0.509816 0.0409145 0.385276 0.116602C0.260736 0.19229 0.159189 0.30049 0.0915542 0.429565C0.0239196 0.55864 -0.00724332 0.703708 0.00141679 0.849166C0.0100769 0.994625 0.0582324 1.13497 0.140705 1.25511L7.34149 11.6544C7.41489 11.761 7.51311 11.8481 7.62768 11.9083C7.74225 11.9685 7.86974 12 7.99917 12C8.12859 12 8.25608 11.9685 8.37065 11.9083C8.48522 11.8481 8.58344 11.761 8.65684 11.6544L15.8576 1.25511C15.9407 1.13515 15.9894 0.994736 15.9985 0.849081C16.0075 0.703425 15.9765 0.558076 15.9088 0.42877ZM7.99917 9.79373L2.32494 1.59989H13.6734L7.99917 9.79373Z" fill="black"/>
</svg>
