<svg width="24" height="25" viewBox="0 0 24 25" fill="none" xmlns="http://www.w3.org/2000/svg">
<path d="M17.25 8.80225C19.6425 8.81605 20.9383 8.9276 21.7831 9.8108C22.75 10.8216 22.75 12.4477 22.75 15.6999V16.8499C22.75 20.1033 22.75 21.7294 21.7831 22.7402C20.8173 23.7499 19.2608 23.7499 16.15 23.7499H7.35C4.2392 23.7499 2.6827 23.7499 1.7169 22.7402C0.75 21.7282 0.75 20.1033 0.75 16.8499V15.6999C0.75 12.4477 0.75 10.8216 1.7169 9.8108C2.5617 8.9276 3.8575 8.81605 6.25 8.80225" stroke="#868A95" stroke-width="1.5" stroke-linecap="round"/>
<path d="M11.75 15.7V0.75M11.75 0.75L15.05 4.775M11.75 0.75L8.45001 4.775" stroke="#868A95" stroke-width="1.5" stroke-linecap="round" stroke-linejoin="round"/>
</svg>
