<svg width="22" height="27" viewBox="0 0 22 27" fill="none" xmlns="http://www.w3.org/2000/svg">
<path d="M2.2 1.92857H11V7.71429C11 8.775 11.99 9.64286 13.2 9.64286H19.8V15.4286H22V7.71429C22 7.425 21.89 7.23214 21.67 7.03929L13.97 0.289286C13.75 0.0964285 13.53 0 13.2 0H2.2C0.99 0 0 0.867857 0 1.92857V25.0714C0 26.1321 0.99 27 2.2 27H6.6V25.0714H2.2V1.92857ZM13.2 2.31429L19.36 7.71429H13.2V2.31429ZM22 19.2857L13.2 27L8.8 23.1429L10.34 21.7929L13.2 24.3L20.46 17.9357L22 19.2857Z" fill="#868A95"/>
</svg>
