<svg width="41" height="31" viewBox="0 0 41 31" fill="none" xmlns="http://www.w3.org/2000/svg">
<path d="M7.60039 15.0992C8.06706 15.0325 8.70039 14.9992 9.50039 14.9992C12.0337 14.9992 13.9337 15.7325 15.2004 17.1992C16.5337 18.5992 17.2004 20.3659 17.2004 22.4992C17.2004 24.7659 16.4337 26.6659 14.9004 28.1992C13.4337 29.7326 11.4004 30.4992 8.80039 30.4992C6.13372 30.4992 4.00039 29.7659 2.40039 28.2992C0.800391 26.7659 0.000390589 24.5659 0.000390589 21.6992C0.000390589 17.8325 1.16706 13.9325 3.50039 9.99921C5.83372 5.99921 8.70039 2.66588 12.1004 -0.00078249L14.1004 2.09921C9.76706 6.69921 7.60039 11.0325 7.60039 15.0992ZM31.0004 15.0992C31.4671 15.0325 32.1004 14.9992 32.9004 14.9992C35.4337 14.9992 37.3337 15.7325 38.6004 17.1992C39.9337 18.5992 40.6004 20.3659 40.6004 22.4992C40.6004 24.7659 39.8337 26.6659 38.3004 28.1992C36.8337 29.7326 34.8004 30.4992 32.2004 30.4992C29.5337 30.4992 27.4004 29.7659 25.8004 28.2992C24.2004 26.7659 23.4004 24.5659 23.4004 21.6992C23.4004 17.8325 24.5671 13.9325 26.9004 9.99921C29.2337 5.99921 32.1004 2.66588 35.5004 -0.00078249L37.5004 2.09921C33.1671 6.69921 31.0004 11.0325 31.0004 15.0992Z" fill="#008080"/>
</svg>
